<svg baseProfile="tiny" height="100%" preserveAspectRatio="meet" version="1.2" viewBox="0 0 3600 400" width="100%" xmlns="http://www.w3.org/2000/svg" xmlns:ev="http://www.w3.org/2001/xml-events" xmlns:xlink="http://www.w3.org/1999/xlink"><defs /><rect fill="#f58b44" height="69.5652" rx="20" ry="20" width="40.5" x="0" y="165.2174" /><rect fill="#f58b44" height="69.5652" rx="20" ry="20" width="40.5" x="45" y="165.2174" /><rect fill="#f58b44" height="69.5652" rx="20" ry="20" width="40.5" x="90" y="165.2174" /><rect fill="#f58b44" height="191.3043" rx="20" ry="20" width="40.5" x="135" y="104.3478" /><rect fill="#f58b44" height="226.087" rx="20" ry="20" width="40.5" x="180" y="86.9565" /><rect fill="#f58b44" height="243.4783" rx="20" ry="20" width="40.5" x="225" y="78.2609" /><rect fill="#f58b44" height="226.087" rx="20" ry="20" width="40.5" x="270" y="86.9565" /><rect fill="#f58b44" height="278.2609" rx="20" ry="20" width="40.5" x="315" y="60.8696" /><rect fill="#f58b44" height="295.6522" rx="20" ry="20" width="40.5" x="360" y="52.1739" /><rect fill="#f58b44" height="295.6522" rx="20" ry="20" width="40.5" x="405" y="52.1739" /><rect fill="#f58b44" height="278.2609" rx="20" ry="20" width="40.5" x="450" y="60.8696" /><rect fill="#f58b44" height="278.2609" rx="20" ry="20" width="40.5" x="495" y="60.8696" /><rect fill="#f58b44" height="260.8696" rx="20" ry="20" width="40.5" x="540" y="69.5652" /><rect fill="#f58b44" height="226.087" rx="20" ry="20" width="40.5" x="585" y="86.9565" /><rect fill="#f58b44" height="243.4783" rx="20" ry="20" width="40.5" x="630" y="78.2609" /><rect fill="#f58b44" height="243.4783" rx="20" ry="20" width="40.5" x="675" y="78.2609" /><rect fill="#f58b44" height="173.913" rx="20" ry="20" width="40.5" x="720" y="113.0435" /><rect fill="#f58b44" height="139.1304" rx="20" ry="20" width="40.5" x="765" y="130.4348" /><rect fill="#f58b44" height="208.6957" rx="20" ry="20" width="40.5" x="810" y="95.6522" /><rect fill="#f58b44" height="208.6957" rx="20" ry="20" width="40.5" x="855" y="95.6522" /><rect fill="#f58b44" height="191.3043" rx="20" ry="20" width="40.5" x="900" y="104.3478" /><rect fill="#f58b44" height="156.5217" rx="20" ry="20" width="40.5" x="945" y="121.7391" /><rect fill="#f58b44" height="156.5217" rx="20" ry="20" width="40.5" x="990" y="121.7391" /><rect fill="#f58b44" height="191.3043" rx="20" ry="20" width="40.5" x="1035" y="104.3478" /><rect fill="#f58b44" height="173.913" rx="20" ry="20" width="40.5" x="1080" y="113.0435" /><rect fill="#f58b44" height="208.6957" rx="20" ry="20" width="40.5" x="1125" y="95.6522" /><rect fill="#f58b44" height="243.4783" rx="20" ry="20" width="40.5" x="1170" y="78.2609" /><rect fill="#f58b44" height="173.913" rx="20" ry="20" width="40.5" x="1215" y="113.0435" /><rect fill="#f58b44" height="121.7391" rx="20" ry="20" width="40.5" x="1260" y="139.1304" /><rect fill="#f58b44" height="121.7391" rx="20" ry="20" width="40.5" x="1305" y="139.1304" /><rect fill="#f58b44" height="121.7391" rx="20" ry="20" width="40.5" x="1350" y="139.1304" /><rect fill="#f58b44" height="139.1304" rx="20" ry="20" width="40.5" x="1395" y="130.4348" /><rect fill="#f58b44" height="139.1304" rx="20" ry="20" width="40.5" x="1440" y="130.4348" /><rect fill="#f58b44" height="156.5217" rx="20" ry="20" width="40.5" x="1485" y="121.7391" /><rect fill="#f58b44" height="156.5217" rx="20" ry="20" width="40.5" x="1530" y="121.7391" /><rect fill="#f58b44" height="243.4783" rx="20" ry="20" width="40.5" x="1575" y="78.2609" /><rect fill="#f58b44" height="365.2174" rx="20" ry="20" width="40.5" x="1620" y="17.3913" /><rect fill="#f58b44" height="382.6087" rx="20" ry="20" width="40.5" x="1665" y="8.6957" /><rect fill="#f58b44" height="400.0" rx="20" ry="20" width="40.5" x="1710" y="0.0" /><rect fill="#f58b44" height="347.8261" rx="20" ry="20" width="40.5" x="1755" y="26.087" /><rect fill="#f58b44" height="365.2174" rx="20" ry="20" width="40.5" x="1800" y="17.3913" /><rect fill="#f58b44" height="400.0" rx="20" ry="20" width="40.5" x="1845" y="0.0" /><rect fill="#f58b44" height="382.6087" rx="20" ry="20" width="40.5" x="1890" y="8.6957" /><rect fill="#f58b44" height="365.2174" rx="20" ry="20" width="40.5" x="1935" y="17.3913" /><rect fill="#f58b44" height="347.8261" rx="20" ry="20" width="40.5" x="1980" y="26.087" /><rect fill="#f58b44" height="382.6087" rx="20" ry="20" width="40.5" x="2025" y="8.6957" /><rect fill="#f58b44" height="365.2174" rx="20" ry="20" width="40.5" x="2070" y="17.3913" /><rect fill="#f58b44" height="382.6087" rx="20" ry="20" width="40.5" x="2115" y="8.6957" /><rect fill="#f58b44" height="365.2174" rx="20" ry="20" width="40.5" x="2160" y="17.3913" /><rect fill="#f58b44" height="365.2174" rx="20" ry="20" width="40.5" x="2205" y="17.3913" /><rect fill="#f58b44" height="365.2174" rx="20" ry="20" width="40.5" x="2250" y="17.3913" /><rect fill="#f58b44" height="382.6087" rx="20" ry="20" width="40.5" x="2295" y="8.6957" /><rect fill="#f58b44" height="382.6087" rx="20" ry="20" width="40.5" x="2340" y="8.6957" /><rect fill="#f58b44" height="330.4348" rx="20" ry="20" width="40.5" x="2385" y="34.7826" /><rect fill="#f58b44" height="330.4348" rx="20" ry="20" width="40.5" x="2430" y="34.7826" /><rect fill="#f58b44" height="313.0435" rx="20" ry="20" width="40.5" x="2475" y="43.4783" /><rect fill="#f58b44" height="313.0435" rx="20" ry="20" width="40.5" x="2520" y="43.4783" /><rect fill="#f58b44" height="313.0435" rx="20" ry="20" width="40.5" x="2565" y="43.4783" /><rect fill="#f58b44" height="295.6522" rx="20" ry="20" width="40.5" x="2610" y="52.1739" /><rect fill="#f58b44" height="313.0435" rx="20" ry="20" width="40.5" x="2655" y="43.4783" /><rect fill="#f58b44" height="313.0435" rx="20" ry="20" width="40.5" x="2700" y="43.4783" /><rect fill="#f58b44" height="313.0435" rx="20" ry="20" width="40.5" x="2745" y="43.4783" /><rect fill="#f58b44" height="313.0435" rx="20" ry="20" width="40.5" x="2790" y="43.4783" /><rect fill="#f58b44" height="313.0435" rx="20" ry="20" width="40.5" x="2835" y="43.4783" /><rect fill="#f58b44" height="330.4348" rx="20" ry="20" width="40.5" x="2880" y="34.7826" /><rect fill="#f58b44" height="278.2609" rx="20" ry="20" width="40.5" x="2925" y="60.8696" /><rect fill="#f58b44" height="226.087" rx="20" ry="20" width="40.5" x="2970" y="86.9565" /><rect fill="#f58b44" height="226.087" rx="20" ry="20" width="40.5" x="3015" y="86.9565" /><rect fill="#f58b44" height="226.087" rx="20" ry="20" width="40.5" x="3060" y="86.9565" /><rect fill="#f58b44" height="191.3043" rx="20" ry="20" width="40.5" x="3105" y="104.3478" /><rect fill="#f58b44" height="191.3043" rx="20" ry="20" width="40.5" x="3150" y="104.3478" /><rect fill="#f58b44" height="191.3043" rx="20" ry="20" width="40.5" x="3195" y="104.3478" /><rect fill="#f58b44" height="191.3043" rx="20" ry="20" width="40.5" x="3240" y="104.3478" /><rect fill="#f58b44" height="156.5217" rx="20" ry="20" width="40.5" x="3285" y="121.7391" /><rect fill="#f58b44" height="173.913" rx="20" ry="20" width="40.5" x="3330" y="113.0435" /><rect fill="#f58b44" height="173.913" rx="20" ry="20" width="40.5" x="3375" y="113.0435" /><rect fill="#f58b44" height="208.6957" rx="20" ry="20" width="40.5" x="3420" y="95.6522" /><rect fill="#f58b44" height="226.087" rx="20" ry="20" width="40.5" x="3465" y="86.9565" /><rect fill="#f58b44" height="69.5652" rx="20" ry="20" width="40.5" x="3510" y="165.2174" /><rect fill="#f58b44" height="0.0" rx="20" ry="20" width="40.5" x="3555" y="200.0" /></svg>