<svg id="Seite_1" data-name="Seite 1" xmlns="http://www.w3.org/2000/svg" viewBox="0 0 547.39 112.28"><title>page_1</title><path d="M20.3,27.26c3.65.75,8.4,2.5,8.35,7.85a6.89,6.89,0,0,1-2.9,6,12.08,12.08,0,0,1-7.15,2c-5.15,0-8.65-2-10.5-6L13.7,34c.75,2.15,2.35,3.25,4.9,3.25,2.3,0,3.45-.7,3.45-2.15s-2-2.1-4.55-2.75c-3.7-.95-8.35-2.5-8.35-7.7a7,7,0,0,1,2.7-5.8,10.64,10.64,0,0,1,6.8-2.15,10.63,10.63,0,0,1,9.5,5.3l-5.5,3a4.13,4.13,0,0,0-4-2.55c-1.65,0-2.9.8-2.9,2.05S17.75,26.61,20.3,27.26Z" style="fill:#1d1d1b"/><path d="M37.9,32.56c.85,3.15,3.2,4.7,7.05,4.7a6.64,6.64,0,0,0,5.6-2.5l5.2,3c-2.45,3.55-6.1,5.35-10.9,5.35a13.42,13.42,0,0,1-10-3.75,12.81,12.81,0,0,1-3.75-9.45,12.93,12.93,0,0,1,3.7-9.4,12.62,12.62,0,0,1,9.5-3.8,11.78,11.78,0,0,1,9,3.8,13.14,13.14,0,0,1,3.6,9.4,16.88,16.88,0,0,1-.25,2.65Zm12.65-5a6,6,0,0,0-6.2-5,6.23,6.23,0,0,0-6.55,5Z" style="fill:#1d1d1b"/><path d="M98.6,27v15.4H92.15V27.46c0-3-1.55-4.75-4.2-4.75-3,0-4.65,2-4.65,5.65v14H76.85V27.46c0-3-1.55-4.75-4.2-4.75-2.85,0-4.7,2-4.7,5.65v14H61.5v-25H68v2.65c1.5-2.25,3.8-3.35,7-3.35a7.41,7.41,0,0,1,6.8,3.6,8.46,8.46,0,0,1,7.45-3.6C94.9,16.71,98.6,20.76,98.6,27Z" style="fill:#1d1d1b"/><path d="M103.35,10.46a4,4,0,1,1,4,3.95A4,4,0,0,1,103.35,10.46Zm.75,31.95v-25h6.45v25Z" style="fill:#1d1d1b"/><path d="M137.1,19.46a10.38,10.38,0,0,1,2.7,7.6V42.41h-6.45V27.86c0-3.35-1.95-5.15-4.95-5.15-3.35,0-5.5,2.05-5.5,6.2v13.5h-6.45v-25h6.45v2.8c1.55-2.35,4-3.5,7.45-3.5A8.86,8.86,0,0,1,137.1,19.46Z" style="fill:#1d1d1b"/><path d="M164.3,17.41h6.45v25H164.3V39.46a9.79,9.79,0,0,1-8.15,3.65,11.36,11.36,0,0,1-8.6-3.8,13.4,13.4,0,0,1-3.55-9.4,13.28,13.28,0,0,1,3.55-9.35,11.41,11.41,0,0,1,8.6-3.85,9.79,9.79,0,0,1,8.15,3.65Zm-7,19.55a6.71,6.71,0,0,0,5-2,6.9,6.9,0,0,0,2-5.1,6.7,6.7,0,0,0-2-5.05,7.13,7.13,0,0,0-9.9,0,6.86,6.86,0,0,0-2,5.05,7.06,7.06,0,0,0,2,5.1A6.71,6.71,0,0,0,157.35,37Z" style="fill:#1d1d1b"/><path d="M183.05,21.71c1.2-3.2,4.2-4.8,7.6-4.8v7.2a7.51,7.51,0,0,0-5.3,1.2c-1.55,1.05-2.3,2.75-2.3,5.15V42.41H176.6v-25h6.45Z" style="fill:#1d1d1b"/><path d="M191.6,41.81a4.24,4.24,0,1,1,6,0A4.26,4.26,0,0,1,191.6,41.81Z" style="fill:#1d1d1b"/><path d="M214.15,43.11a13,13,0,0,1-13.21-13.2,12.68,12.68,0,0,1,3.81-9.35,13.25,13.25,0,0,1,22.65,9.35,13.06,13.06,0,0,1-13.25,13.2Zm0-6.3a6.56,6.56,0,0,0,4.85-2A6.71,6.71,0,0,0,221,29.91,6.71,6.71,0,0,0,219,25a7,7,0,0,0-9.7,0,6.87,6.87,0,0,0-1.9,4.95,6.87,6.87,0,0,0,1.9,4.95A6.56,6.56,0,0,0,214.15,36.81Z" style="fill:#1d1d1b"/><path d="M234.4,39.31a12.86,12.86,0,0,1-3.76-9.4,12.92,12.92,0,0,1,13.21-13.2,12.45,12.45,0,0,1,11.2,6.45l-5.55,3.25a6.18,6.18,0,0,0-5.7-3.35,6.55,6.55,0,0,0-6.7,6.85,6.83,6.83,0,0,0,1.9,4.9,6.52,6.52,0,0,0,4.8,1.9,6.17,6.17,0,0,0,5.75-3.3l5.6,3.2a13.31,13.31,0,0,1-20.75,2.7Z" style="fill:#1d1d1b"/><path d="M260.6,39.31a12.86,12.86,0,0,1-3.76-9.4,12.92,12.92,0,0,1,13.21-13.2,12.45,12.45,0,0,1,11.2,6.45l-5.55,3.25a6.18,6.18,0,0,0-5.7-3.35,6.55,6.55,0,0,0-6.7,6.85,6.83,6.83,0,0,0,1.9,4.9,6.52,6.52,0,0,0,4.8,1.9,6.17,6.17,0,0,0,5.75-3.3l5.6,3.2a13.31,13.31,0,0,1-20.75,2.7Z" style="fill:#1d1d1b"/><path d="M284.74,42.41V5.91h6.45v36.5Z" style="fill:#1d1d1b"/><path d="M309,43.11a13,13,0,0,1-13.21-13.2,12.67,12.67,0,0,1,3.8-9.35,13.26,13.26,0,0,1,22.66,9.35A13.06,13.06,0,0,1,309,43.11Zm0-6.3a6.57,6.57,0,0,0,4.85-2,6.71,6.71,0,0,0,1.95-4.95A6.71,6.71,0,0,0,313.85,25a7,7,0,0,0-9.71,0,6.87,6.87,0,0,0-1.9,4.95,6.87,6.87,0,0,0,1.9,4.95A6.56,6.56,0,0,0,309,36.81Z" style="fill:#1d1d1b"/><path d="M348.1,42.41h-7.45l-5.4-7.6-5.45,7.6h-7.46l9.16-12.75-8.76-12.25h7.46l5.05,7.05,5.05-7h7.4L339,29.61Z" style="fill:#1d1d1b"/><path d="M350.54,10.46a4,4,0,1,1,3.95,3.95A4,4,0,0,1,350.54,10.46Zm.75,31.95v-25h6.45v25Z" style="fill:#1d1d1b"/><path d="M380.15,17.41h6.45v25h-6.45v-2.8c-1.56,2.35-4.06,3.5-7.46,3.5a9,9,0,0,1-6.8-2.75,10.57,10.57,0,0,1-2.65-7.6V17.41h6.45V32c0,3.35,1.95,5.15,4.95,5.15,3.36,0,5.51-2,5.51-6.2Z" style="fill:#1d1d1b"/><path d="M429.6,27v15.4h-6.45V27.46c0-3-1.55-4.75-4.2-4.75-2.95,0-4.66,2-4.66,5.65v14h-6.45V27.46c0-3-1.55-4.75-4.2-4.75-2.85,0-4.7,2-4.7,5.65v14h-6.45v-25h6.45v2.65c1.5-2.25,3.8-3.35,6.95-3.35a7.41,7.41,0,0,1,6.8,3.6,8.49,8.49,0,0,1,7.46-3.6C425.9,16.71,429.6,20.76,429.6,27Z" style="fill:#1d1d1b"/><path d="M435.84,41.81a4.24,4.24,0,1,1,6,0A4.26,4.26,0,0,1,435.84,41.81Z" style="fill:#1d1d1b"/><path d="M448.94,39.31a12.86,12.86,0,0,1-3.75-9.4,12.9,12.9,0,0,1,13.2-13.2,12.45,12.45,0,0,1,11.2,6.45L464,26.41a6.18,6.18,0,0,0-5.7-3.35,6.55,6.55,0,0,0-6.7,6.85,6.83,6.83,0,0,0,1.9,4.9,6.52,6.52,0,0,0,4.8,1.9,6.17,6.17,0,0,0,5.75-3.3l5.6,3.2a13.31,13.31,0,0,1-20.75,2.7Z" style="fill:#1d1d1b"/><path d="M484.59,43.11a13,13,0,0,1-13.2-13.2,12.67,12.67,0,0,1,3.8-9.35,13.25,13.25,0,0,1,22.65,9.35,13.06,13.06,0,0,1-13.25,13.2Zm0-6.3a6.56,6.56,0,0,0,4.85-2,6.71,6.71,0,0,0,1.95-4.95A6.71,6.71,0,0,0,489.44,25a7,7,0,0,0-9.7,0,6.87,6.87,0,0,0-1.9,4.95,6.87,6.87,0,0,0,1.9,4.95A6.56,6.56,0,0,0,484.59,36.81Z" style="fill:#1d1d1b"/><path d="M539.5,27v15.4H533V27.46c0-3-1.55-4.75-4.2-4.75-3,0-4.65,2-4.65,5.65v14h-6.45V27.46c0-3-1.55-4.75-4.2-4.75-2.85,0-4.7,2-4.7,5.65v14h-6.45v-25h6.45v2.65c1.5-2.25,3.8-3.35,6.95-3.35a7.41,7.41,0,0,1,6.8,3.6,8.46,8.46,0,0,1,7.45-3.6C535.79,16.71,539.5,20.76,539.5,27Z" style="fill:#1d1d1b"/><path d="M24.25,72.47a5.68,5.68,0,0,1-1.77,4.23,6,6,0,0,1-4.32,1.71H9.1v-21h8.4a5.72,5.72,0,0,1,4.17,1.65,5.46,5.46,0,0,1,1.71,4.08,5,5,0,0,1-2.28,4.38A5.36,5.36,0,0,1,24.25,72.47ZM11.89,60v6.42H17.5a3.12,3.12,0,0,0,3.12-3.21A3.06,3.06,0,0,0,19.69,61a2.91,2.91,0,0,0-2.19-1ZM18.16,75.8a3.32,3.32,0,0,0,3.33-3.42,3.28,3.28,0,0,0-1-2.4,3.11,3.11,0,0,0-2.34-1H11.89V75.8Z" style="fill:#1d1d1b"/><path d="M38,63.41h2.61v15H38V76.25A5.29,5.29,0,0,1,33.1,78.8c-3.51,0-5.82-2.37-5.82-6.18V63.41h2.61v9.06c0,2.43,1.41,3.84,3.72,3.84,2.61,0,4.35-1.59,4.35-5Z" style="fill:#1d1d1b"/><path d="M44.08,58.94a1.76,1.76,0,1,1,3.51,0,1.76,1.76,0,0,1-3.51,0Zm.45,19.47v-15h2.61v15Z" style="fill:#1d1d1b"/><path d="M51.13,78.41V56.51h2.61v21.9Z" style="fill:#1d1d1b"/><path d="M70.15,57.41h2.6v21h-2.6V75.83a6.35,6.35,0,0,1-5.67,3,7.17,7.17,0,0,1-5.37-2.28,8.16,8.16,0,0,1,0-11.19A7.2,7.2,0,0,1,64.48,63a6.35,6.35,0,0,1,5.67,3ZM68.62,74.75a5.27,5.27,0,0,0,1.53-3.84,5.16,5.16,0,0,0-1.53-3.81,5.4,5.4,0,0,0-7.59,0,5.16,5.16,0,0,0-1.53,3.81A5.27,5.27,0,0,0,61,74.75a5.47,5.47,0,0,0,7.59,0Z" style="fill:#1d1d1b"/><path d="M101.4,77.54l-2.34,1.35-2.13-2.28a8.38,8.38,0,0,1-6,2.19,7.68,7.68,0,0,1-5.1-1.62,5.56,5.56,0,0,1-2-4.44,6.58,6.58,0,0,1,3.84-6.06,6,6,0,0,1-1.35-3.81,5.42,5.42,0,0,1,1.8-4.23A6.38,6.38,0,0,1,92.56,57a6.58,6.58,0,0,1,6.26,4.29l-2.34,1.35a4,4,0,0,0-3.87-2.94,3.21,3.21,0,0,0-3.44,3.12c0,1.32.62,2.25,1.85,3.57l5.73,6.12a12.73,12.73,0,0,0,1.08-3.81l2.4,1.38a12.26,12.26,0,0,1-1.62,4.47Zm-6.27-2.85L89.46,68.6a4.23,4.23,0,0,0-2.78,4c0,2.25,1.59,3.6,4.32,3.6A6,6,0,0,0,95.13,74.69Z" style="fill:#1d1d1b"/><path d="M120,57.41a9.29,9.29,0,0,1,7.11,3.06A10.48,10.48,0,0,1,130,67.91a10.6,10.6,0,0,1-2.85,7.47,9.36,9.36,0,0,1-7.11,3h-8.18v-21Zm0,18.36a6.76,6.76,0,0,0,5.25-2.25,8.73,8.73,0,0,0,0-11.22A6.76,6.76,0,0,0,120,60.05h-5.39V75.77Z" style="fill:#1d1d1b"/><path d="M134.94,72.11a5.12,5.12,0,0,0,5.43,4.23,4.67,4.67,0,0,0,4.32-2.19l2.22,1.26a7.36,7.36,0,0,1-6.6,3.39,8,8,0,0,1-5.82-2.22,8.35,8.35,0,0,1,0-11.31A7.59,7.59,0,0,1,140.13,63a6.85,6.85,0,0,1,5.37,2.34,7.92,7.92,0,0,1,2.1,5.58,7.68,7.68,0,0,1-.09,1.17Zm0-2.28h10a4.75,4.75,0,0,0-4.83-4.35A5,5,0,0,0,134.94,69.83Z" style="fill:#1d1d1b"/><path d="M164.25,65.33a8.16,8.16,0,0,1,0,11.19,7.17,7.17,0,0,1-5.37,2.28,6.34,6.34,0,0,1-5.67-3v8.58H150.6v-21h2.61V66a6.34,6.34,0,0,1,5.67-3A7.2,7.2,0,0,1,164.25,65.33Zm-1.92,9.42a5.27,5.27,0,0,0,1.53-3.84,5.16,5.16,0,0,0-1.53-3.81,5.4,5.4,0,0,0-7.59,0,5.16,5.16,0,0,0-1.53,3.81,5.27,5.27,0,0,0,1.53,3.84,5.47,5.47,0,0,0,7.59,0Z" style="fill:#1d1d1b"/><path d="M169.59,78.41V56.51h2.61v21.9Z" style="fill:#1d1d1b"/><path d="M183.24,78.8a7.84,7.84,0,1,1,5.61-2.28A7.65,7.65,0,0,1,183.24,78.8ZM187,74.72a5.4,5.4,0,1,0-3.78,1.53A5.16,5.16,0,0,0,187,74.72Z" style="fill:#1d1d1b"/><path d="M204.12,63.41h2.79l-6.12,15.93c-1.29,3.39-3.66,5.28-6.66,5.07V82q2.75.22,4.05-3.06l.27-.57-6.54-14.94h2.79l5.1,11.76Z" style="fill:#1d1d1b"/><path d="M224.49,57.41a6.75,6.75,0,1,1,0,13.5h-4.83v7.5h-2.79v-21Zm0,10.89a3.82,3.82,0,0,0,2.88-1.17,4.22,4.22,0,0,0,1.14-3,4,4,0,0,0-4-4.14h-4.83V68.3Z" style="fill:#1d1d1b"/><path d="M233.85,58.94a1.76,1.76,0,1,1,3.51,0,1.76,1.76,0,0,1-3.51,0Zm.45,19.47v-15h2.61v15Z" style="fill:#1d1d1b"/><path d="M254.55,65.33a8.16,8.16,0,0,1,0,11.19,7.17,7.17,0,0,1-5.37,2.28,6.34,6.34,0,0,1-5.67-3v8.58H240.9v-21h2.61V66a6.34,6.34,0,0,1,5.67-3A7.2,7.2,0,0,1,254.55,65.33Zm-1.92,9.42a5.27,5.27,0,0,0,1.53-3.84,5.16,5.16,0,0,0-1.53-3.81,5.4,5.4,0,0,0-7.59,0,5.16,5.16,0,0,0-1.53,3.81A5.27,5.27,0,0,0,245,74.75a5.47,5.47,0,0,0,7.59,0Z" style="fill:#1d1d1b"/><path d="M261.72,72.11a5.12,5.12,0,0,0,5.43,4.23,4.67,4.67,0,0,0,4.32-2.19l2.22,1.26a7.36,7.36,0,0,1-6.6,3.39,8,8,0,0,1-5.82-2.22,8.35,8.35,0,0,1,0-11.31A7.59,7.59,0,0,1,266.91,63a6.85,6.85,0,0,1,5.37,2.34,7.92,7.92,0,0,1,2.1,5.58,7.68,7.68,0,0,1-.09,1.17Zm0-2.28h10a4.75,4.75,0,0,0-4.83-4.35A5,5,0,0,0,261.72,69.83Z" style="fill:#1d1d1b"/><path d="M277.38,78.41V56.51H280v21.9Z" style="fill:#1d1d1b"/><path d="M283.53,58.94a1.76,1.76,0,1,1,3.51,0,1.76,1.76,0,0,1-3.51,0ZM284,78.41v-15h2.61v15Z" style="fill:#1d1d1b"/><path d="M303.87,69.2v9.21h-2.61V69.35c0-2.43-1.41-3.84-3.72-3.84-2.61,0-4.35,1.59-4.35,4.95v8h-2.61v-15h2.61v2.16A5.29,5.29,0,0,1,298.05,63C301.56,63,303.87,65.39,303.87,69.2Z" style="fill:#1d1d1b"/><path d="M309.33,72.11a5.12,5.12,0,0,0,5.43,4.23,4.67,4.67,0,0,0,4.32-2.19l2.22,1.26a7.36,7.36,0,0,1-6.6,3.39,8,8,0,0,1-5.82-2.22,8.35,8.35,0,0,1,0-11.31A7.59,7.59,0,0,1,314.52,63a6.85,6.85,0,0,1,5.37,2.34,7.92,7.92,0,0,1,2.1,5.58,7.68,7.68,0,0,1-.09,1.17Zm0-2.28h10a4.75,4.75,0,0,0-4.83-4.35A5,5,0,0,0,309.33,69.83Z" style="fill:#1d1d1b"/><path d="M13.81,88.4a6.16,6.16,0,0,1,4.74,2,7,7,0,0,1,1.9,5,7.07,7.07,0,0,1-1.9,5,6.24,6.24,0,0,1-4.74,2H8.35v-14Zm0,12.25a4.51,4.51,0,0,0,3.5-1.5,5.82,5.82,0,0,0,0-7.48,4.51,4.51,0,0,0-3.5-1.5h-3.6v10.48Z" style="fill:#1d1d1b"/><path d="M23.75,98.21A3.41,3.41,0,0,0,27.37,101a3.12,3.12,0,0,0,2.88-1.46l1.48.84a4.91,4.91,0,0,1-4.4,2.26,5.33,5.33,0,0,1-3.88-1.48,5.57,5.57,0,0,1,0-7.54,5.06,5.06,0,0,1,3.78-1.5,4.57,4.57,0,0,1,3.58,1.56,5.28,5.28,0,0,1,1.4,3.72,5.12,5.12,0,0,1-.06.78Zm0-1.52h6.68a3.17,3.17,0,0,0-3.22-2.9A3.33,3.33,0,0,0,23.75,96.69Z" style="fill:#1d1d1b"/><path d="M37.27,96.61c1.56.34,3.64.92,3.62,3.06a2.64,2.64,0,0,1-1.06,2.18,4.24,4.24,0,0,1-2.68.82,4.06,4.06,0,0,1-4-2.34l1.5-.86A2.45,2.45,0,0,0,37.15,101c1.14,0,2-.42,2-1.36,0-.78-.88-1.22-2-1.48-1.58-.42-3.62-.94-3.62-3.06a2.7,2.7,0,0,1,1-2.14,4.19,4.19,0,0,1,6.14,1.24l-1.46.82a2.09,2.09,0,0,0-2.14-1.28c-1,0-1.78.48-1.78,1.34S36.17,96.31,37.27,96.61Z" style="fill:#1d1d1b"/><path d="M42.55,89.42a1.17,1.17,0,1,1,2.34,0,1.17,1.17,0,0,1-2.34,0Zm.3,13v-10h1.74v10Z" style="fill:#1d1d1b"/><path d="M55.55,92.41h1.72V102a4.19,4.19,0,0,1-1.5,3.44,5.5,5.5,0,0,1-3.6,1.24c-2.24,0-3.92-.86-4.74-2.44l1.52-.86a3.27,3.27,0,0,0,3.26,1.68c2.08,0,3.34-1.16,3.34-3.06v-1.42a4.24,4.24,0,0,1-3.76,2,4.83,4.83,0,0,1-3.62-1.52,5.13,5.13,0,0,1-1.48-3.7,5.05,5.05,0,0,1,1.48-3.68,4.83,4.83,0,0,1,3.62-1.52,4.22,4.22,0,0,1,3.76,2Zm-1,2.42a3.65,3.65,0,1,0,1,2.52A3.44,3.44,0,0,0,54.53,94.83Z" style="fill:#1d1d1b"/><path d="M68.77,96.27v6.14H67v-6a2.31,2.31,0,0,0-2.48-2.56c-1.74,0-2.9,1.06-2.9,3.3v5.3H59.91v-10h1.74v1.44a3.53,3.53,0,0,1,3.24-1.7C67.23,92.15,68.77,93.73,68.77,96.27Z" style="fill:#1d1d1b"/><path d="M84.47,92.41h1.74v10H84.47v-1.72a4.23,4.23,0,0,1-3.78,2,4.78,4.78,0,0,1-3.58-1.52,5.44,5.44,0,0,1,0-7.46,4.8,4.8,0,0,1,3.58-1.54,4.23,4.23,0,0,1,3.78,2Zm-1,7.56a3.51,3.51,0,0,0,1-2.56,3.44,3.44,0,0,0-1-2.54,3.6,3.6,0,0,0-5.06,0,3.44,3.44,0,0,0-1,2.54,3.51,3.51,0,0,0,1,2.56,3.65,3.65,0,0,0,5.06,0Z" style="fill:#1d1d1b"/><path d="M97.71,96.27v6.14H96v-6a2.31,2.31,0,0,0-2.48-2.56c-1.74,0-2.9,1.06-2.9,3.3v5.3H88.85v-10h1.74v1.44a3.53,3.53,0,0,1,3.24-1.7C96.17,92.15,97.71,93.73,97.71,96.27Z" style="fill:#1d1d1b"/><path d="M108.41,88.4h1.74v14h-1.74v-1.72a4.23,4.23,0,0,1-3.78,2,4.78,4.78,0,0,1-3.58-1.52,5.44,5.44,0,0,1,0-7.46,4.8,4.8,0,0,1,3.58-1.54,4.23,4.23,0,0,1,3.78,2Zm-1,11.57a3.51,3.51,0,0,0,1-2.56,3.44,3.44,0,0,0-1-2.54,3.6,3.6,0,0,0-5.06,0,3.44,3.44,0,0,0-1,2.54,3.51,3.51,0,0,0,1,2.56,3.65,3.65,0,0,0,5.06,0Z" style="fill:#1d1d1b"/><path d="M117.19,99.23l1.6-.92a3.52,3.52,0,0,0,3.74,2.54c1.92,0,3-.86,3-2.16a1.71,1.71,0,0,0-.76-1.5,10.92,10.92,0,0,0-2.54-1.06l-1.34-.44c-.3-.12-.7-.3-1.16-.52a3.73,3.73,0,0,1-1-.72,3.73,3.73,0,0,1,.4-5.22,4.66,4.66,0,0,1,3.12-1.09,5,5,0,0,1,4.74,3.07l-1.56.9a3.21,3.21,0,0,0-3.18-2.17c-1.52,0-2.54.81-2.54,2.09a1.61,1.61,0,0,0,.66,1.4,8.42,8.42,0,0,0,2.28,1l.82.26c.16.06.4.14.74.28a7.64,7.64,0,0,1,1.4.66,3.1,3.1,0,0,1,1.08.92,2.85,2.85,0,0,1,.7,2.1,3.61,3.61,0,0,1-1.34,2.94,5.42,5.42,0,0,1-3.5,1.08A5.24,5.24,0,0,1,117.19,99.23Z" style="fill:#1d1d1b"/><path d="M130.53,101.17a5.14,5.14,0,0,1-1.5-3.76,5.16,5.16,0,0,1,5.26-5.26,4.8,4.8,0,0,1,4.42,2.62l-1.46.84a3.2,3.2,0,0,0-3-1.76,3.42,3.42,0,0,0-2.52,1,3.7,3.7,0,0,0,0,5.06,3.42,3.42,0,0,0,2.52,1,3.34,3.34,0,0,0,3-1.74l1.48.86a5.3,5.3,0,0,1-8.26,1.1Z" style="fill:#1d1d1b"/><path d="M149.37,96.27v6.14h-1.74v-6a2.31,2.31,0,0,0-2.48-2.56c-1.74,0-2.9,1.06-2.9,3.3v5.3h-1.74v-14h1.74v5.45a3.53,3.53,0,0,1,3.24-1.7C147.83,92.15,149.37,93.73,149.37,96.27Z" style="fill:#1d1d1b"/><path d="M153,98.21a3.41,3.41,0,0,0,3.62,2.82,3.12,3.12,0,0,0,2.88-1.46l1.48.84a4.91,4.91,0,0,1-4.4,2.26,5.33,5.33,0,0,1-3.88-1.48,5.57,5.57,0,0,1,0-7.54,5.06,5.06,0,0,1,3.78-1.5,4.57,4.57,0,0,1,3.58,1.56,5.28,5.28,0,0,1,1.4,3.72,5.12,5.12,0,0,1-.06.78Zm0-1.52h6.68a3.17,3.17,0,0,0-3.22-2.9A3.33,3.33,0,0,0,153,96.69Z" style="fill:#1d1d1b"/><path d="M178,96.19v6.22h-1.74V96.25a2.15,2.15,0,0,0-2.2-2.44c-1.5,0-2.46,1-2.46,3v5.56h-1.74V96.25c0-1.54-.82-2.44-2.12-2.44-1.46,0-2.56,1-2.56,3v5.56h-1.74v-10h1.74v1.34a3.34,3.34,0,0,1,3-1.6,3.11,3.11,0,0,1,2.94,1.7,3.43,3.43,0,0,1,3.14-1.7C176.49,92.15,178,93.71,178,96.19Z" style="fill:#1d1d1b"/><path d="M188.71,92.41h1.74v10h-1.74v-1.72a4.23,4.23,0,0,1-3.78,2,4.78,4.78,0,0,1-3.58-1.52,5.44,5.44,0,0,1,0-7.46,4.8,4.8,0,0,1,3.58-1.54,4.23,4.23,0,0,1,3.78,2Zm-1,7.56a3.51,3.51,0,0,0,1-2.56,3.44,3.44,0,0,0-1-2.54,3.6,3.6,0,0,0-5.06,0,3.44,3.44,0,0,0-1,2.54,3.51,3.51,0,0,0,1,2.56,3.65,3.65,0,0,0,5.06,0Z" style="fill:#1d1d1b"/><path d="M198.53,94.09h-2.66v5.42c0,1.54.88,1.42,2.66,1.34v1.56c-3,.4-4.4-.42-4.4-2.9V94.09h-2V92.41h2V90.13l1.74-.53v2.81h2.66Z" style="fill:#1d1d1b"/><path d="M200.29,89.42a1.17,1.17,0,1,1,2.34,0,1.17,1.17,0,0,1-2.34,0Zm.3,13v-10h1.74v10Z" style="fill:#1d1d1b"/><path d="M205.93,101.17a5.14,5.14,0,0,1-1.5-3.76,5.16,5.16,0,0,1,5.26-5.26,4.8,4.8,0,0,1,4.42,2.62l-1.46.84a3.2,3.2,0,0,0-3-1.76,3.42,3.42,0,0,0-2.52,1,3.7,3.7,0,0,0,0,5.06,3.42,3.42,0,0,0,2.52,1,3.34,3.34,0,0,0,3-1.74l1.48.86a5.3,5.3,0,0,1-8.26,1.1Z" style="fill:#1d1d1b"/><path d="M219.31,96.61c1.56.34,3.64.92,3.62,3.06a2.64,2.64,0,0,1-1.06,2.18,4.24,4.24,0,0,1-2.68.82,4.06,4.06,0,0,1-4-2.34l1.5-.86a2.45,2.45,0,0,0,2.48,1.56c1.14,0,2-.42,2-1.36,0-.78-.88-1.22-2-1.48-1.58-.42-3.62-.94-3.62-3.06a2.7,2.7,0,0,1,1-2.14,4.19,4.19,0,0,1,6.14,1.24l-1.46.82a2.09,2.09,0,0,0-2.14-1.28c-1,0-1.78.48-1.78,1.34S218.21,96.31,219.31,96.61Z" style="fill:#1d1d1b"/></svg>