<svg xmlns="http://www.w3.org/2000/svg" viewBox="0 0 758.89 344.29"><title>page_3</title><g id="Seite_3" data-name="Seite 3"><g id="Backend"><path d="M311.75,147.16a3,3,0,0,1-.95,2.25,3.16,3.16,0,0,1-2.3.92h-4.84V139.12h4.48a3.08,3.08,0,0,1,2.23.88,2.93,2.93,0,0,1,.91,2.18,2.68,2.68,0,0,1-1.22,2.34A2.85,2.85,0,0,1,311.75,147.16Zm-6.6-6.64v3.42h3a1.66,1.66,0,0,0,1.67-1.71,1.6,1.6,0,0,0-.5-1.2,1.53,1.53,0,0,0-1.17-.51Zm3.35,8.41a1.77,1.77,0,0,0,1.77-1.82,1.71,1.71,0,0,0-.53-1.28,1.65,1.65,0,0,0-1.24-.53h-3.35v3.63Z" style="fill:#1d1d1b"/><path d="M320,142.32h1.39v8H320V149a3.36,3.36,0,0,1-3,1.58,3.86,3.86,0,0,1-2.87-1.21,4.22,4.22,0,0,1-1.18-3,4.15,4.15,0,0,1,1.18-3,3.84,3.84,0,0,1,2.87-1.23,3.36,3.36,0,0,1,3,1.58Zm-.81,6.05a2.82,2.82,0,0,0,.81-2.05,2.77,2.77,0,0,0-.81-2,2.72,2.72,0,0,0-2-.83,2.67,2.67,0,0,0-2,.83,2.74,2.74,0,0,0-.82,2,2.79,2.79,0,0,0,.82,2.05,2.7,2.7,0,0,0,2,.82A2.75,2.75,0,0,0,319.22,148.37Z" style="fill:#1d1d1b"/><path d="M324.29,149.33a4.09,4.09,0,0,1-1.2-3,4.12,4.12,0,0,1,4.2-4.2,3.83,3.83,0,0,1,3.54,2.09l-1.17.67a2.56,2.56,0,0,0-2.37-1.4,2.73,2.73,0,0,0-2,.81,2.81,2.81,0,0,0-.8,2,2.77,2.77,0,0,0,.8,2,2.83,2.83,0,0,0,4.43-.57l1.19.68a4.25,4.25,0,0,1-6.61.88Z" style="fill:#1d1d1b"/><path d="M339,150.33h-1.73l-3.65-3.8v3.8h-1.39V139.12h1.39v6.74l3.46-3.54h1.79l-3.82,3.88Z" style="fill:#1d1d1b"/><path d="M340.57,147a2.74,2.74,0,0,0,2.9,2.25,2.49,2.49,0,0,0,2.31-1.17l1.18.68a3.91,3.91,0,0,1-3.52,1.8,4.28,4.28,0,0,1-3.11-1.18,4.17,4.17,0,0,1-1.18-3,4.09,4.09,0,0,1,1.17-3,4,4,0,0,1,3-1.2,3.67,3.67,0,0,1,2.87,1.24,4.25,4.25,0,0,1,1.12,3,4.46,4.46,0,0,1-.05.63Zm0-1.22h5.35a2.54,2.54,0,0,0-2.58-2.32A2.66,2.66,0,0,0,340.57,145.75Z" style="fill:#1d1d1b"/><path d="M356,145.41v4.92h-1.4v-4.84a1.85,1.85,0,0,0-2-2.05c-1.39,0-2.32.85-2.32,2.64v4.25h-1.39v-8h1.39v1.16a2.8,2.8,0,0,1,2.59-1.36A3,3,0,0,1,356,145.41Z" style="fill:#1d1d1b"/><path d="M364.58,139.12H366v11.21h-1.39V149a3.38,3.38,0,0,1-3,1.58,3.82,3.82,0,0,1-2.86-1.21,4.18,4.18,0,0,1-1.19-3,4.11,4.11,0,0,1,1.19-3,3.81,3.81,0,0,1,2.86-1.23,3.38,3.38,0,0,1,3,1.58Zm-.82,9.25a2.83,2.83,0,0,0,.82-2.05,2.78,2.78,0,0,0-.82-2,2.89,2.89,0,0,0-4.05,0,2.78,2.78,0,0,0-.82,2,2.83,2.83,0,0,0,.82,2.05,2.91,2.91,0,0,0,4.05,0Z" style="fill:#1d1d1b"/><path d="M372.46,151.93h-.83l6.4-14.41h.83Z" style="fill:#1d1d1b"/><path d="M391.31,150.33,388.8,146h-2.64v4.29h-1.49V139.12h4.48a3.36,3.36,0,0,1,2.47,1,3.31,3.31,0,0,1,1,2.45,3.25,3.25,0,0,1-.66,2,3.42,3.42,0,0,1-1.66,1.27l2.64,4.48Zm-5.15-9.81v4.17h3a1.88,1.88,0,0,0,1.41-.61,2,2,0,0,0,.59-1.48,2,2,0,0,0-.59-1.48,1.87,1.87,0,0,0-1.41-.6Z" style="fill:#1d1d1b"/><path d="M395.93,148.92h5.21v1.41h-6.69V139.12h6.61v1.41h-5.13V144h4.73v1.4h-4.73Z" style="fill:#1d1d1b"/><path d="M402.3,147.78l1.28-.73a2.81,2.81,0,0,0,3,2c1.54,0,2.37-.69,2.37-1.73a1.35,1.35,0,0,0-.6-1.2,9.06,9.06,0,0,0-2-.85l-1.07-.35c-.24-.1-.56-.24-.93-.42a2.82,2.82,0,0,1-.81-.57,3,3,0,0,1,.32-4.18,3.72,3.72,0,0,1,2.49-.87,4,4,0,0,1,3.8,2.45l-1.25.72a2.56,2.56,0,0,0-2.55-1.72c-1.21,0-2,.63-2,1.66a1.3,1.3,0,0,0,.53,1.12,6.55,6.55,0,0,0,1.82.8l.66.21.59.22a6.18,6.18,0,0,1,1.12.53,2.57,2.57,0,0,1,.87.74,2.27,2.27,0,0,1,.56,1.68,2.89,2.89,0,0,1-1.08,2.35,4.31,4.31,0,0,1-2.8.86A4.2,4.2,0,0,1,402.3,147.78Z" style="fill:#1d1d1b"/><path d="M418.94,139.12v1.41h-3.31v9.8h-1.47v-9.8h-3.3v-1.41Z" style="fill:#1d1d1b"/><path d="M431.79,150.33l-.91-2.52h-5l-.91,2.52h-1.59l4.18-11.21h1.68l4.18,11.21Zm-5.44-3.91h4l-2-5.52Z" style="fill:#1d1d1b"/><path d="M438.77,139.12a3.6,3.6,0,1,1,0,7.2h-2.58v4H434.7V139.12Zm0,5.81a2,2,0,0,0,1.53-.62,2.25,2.25,0,0,0,.61-1.59,2.1,2.1,0,0,0-2.14-2.2h-2.58v4.41Z" style="fill:#1d1d1b"/><path d="M444.14,139.12h1.49v11.21h-1.49Z" style="fill:#1d1d1b"/><path d="M336.67,155.93h.6v7.84h-.53L332.11,157v6.74h-.59v-7.84H332l4.63,6.74Z" style="fill:#1d1d1b"/><path d="M339.57,163.05a2.84,2.84,0,0,1-.85-2.08,2.78,2.78,0,0,1,.85-2.07,2.84,2.84,0,0,1,2.1-.86A2.94,2.94,0,0,1,344.6,161a2.9,2.9,0,0,1-2.93,2.92A2.9,2.9,0,0,1,339.57,163.05Zm2.1.3a2.39,2.39,0,0,0,0-4.77,2.39,2.39,0,1,0,0,4.77Z" style="fill:#1d1d1b"/><path d="M350.89,155.93h.56v7.84h-.56v-1.3a2.65,2.65,0,0,1-2.41,1.42,2.82,2.82,0,0,1-2.06-.84,2.87,2.87,0,0,1-.84-2.08,2.81,2.81,0,0,1,.84-2.07,2.76,2.76,0,0,1,2.06-.86,2.64,2.64,0,0,1,2.41,1.43Zm-2.38,7.42a2.29,2.29,0,0,0,1.68-.69,2.4,2.4,0,1,0-1.68.69Z" style="fill:#1d1d1b"/><path d="M357.68,158.92a3,3,0,0,1,.78,2.07c0,.06,0,.21,0,.27h-5.07a2.27,2.27,0,0,0,.75,1.52,2.42,2.42,0,0,0,1.63.57,2.12,2.12,0,0,0,1.93-1l.5.29a2.76,2.76,0,0,1-2.45,1.27,3,3,0,0,1-2.13-5,2.78,2.78,0,0,1,2.09-.84A2.51,2.51,0,0,1,357.68,158.92Zm-3.58.26a2.27,2.27,0,0,0-.73,1.53h4.5a2.27,2.27,0,0,0-.71-1.56,2.1,2.1,0,0,0-1.47-.57A2.21,2.21,0,0,0,354.1,159.18Z" style="fill:#1d1d1b"/><path d="M359.3,163.73a.5.5,0,1,1,.71,0A.51.51,0,0,1,359.3,163.73Z" style="fill:#1d1d1b"/><path d="M361.92,158.17h.56v6.24a1.54,1.54,0,0,1-1.86,1.72v-.54c.86.09,1.3-.3,1.3-1.18Zm-.17-1.81c0-.56.92-.56.89,0S361.7,157,361.75,156.36Z" style="fill:#1d1d1b"/><path d="M365.78,160.64c1,.22,2.2.46,2.2,1.66,0,.93-.81,1.59-2,1.59a2.12,2.12,0,0,1-2.13-1.24l.48-.28a1.61,1.61,0,0,0,1.65,1c.84,0,1.45-.38,1.45-1s-.53-.87-1.2-1c-1-.23-2.2-.47-2.2-1.65a1.46,1.46,0,0,1,.53-1.13,2.09,2.09,0,0,1,1.38-.46,2,2,0,0,1,1.9,1.12l-.47.27a1.48,1.48,0,0,0-1.43-.85c-.77,0-1.35.42-1.35,1S365.11,160.47,365.78,160.64Z" style="fill:#1d1d1b"/><path d="M372.39,164.89h-.45l4.48-10.08h.45Z" style="fill:#1d1d1b"/><path d="M381.92,163.21h3.92v.56h-4.51v-7.84h4.45v.56h-3.86v3h3.58v.56h-3.58Z" style="fill:#1d1d1b"/><path d="M391.73,163.77h-.68l-1.9-2.44-1.89,2.44h-.68l2.24-2.88-2.11-2.72h.69l1.75,2.27,1.77-2.27h.68l-2.1,2.71Z" style="fill:#1d1d1b"/><path d="M397.88,158.9a2.78,2.78,0,0,1,.85,2.07,2.84,2.84,0,0,1-.85,2.08,2.78,2.78,0,0,1-2.05.84,2.65,2.65,0,0,1-2.41-1.42V166h-.56v-7.84h.56v1.3a2.64,2.64,0,0,1,2.41-1.43A2.73,2.73,0,0,1,397.88,158.9Zm-2.08,4.45a2.39,2.39,0,0,0,0-4.77,2.39,2.39,0,1,0,0,4.77Z" style="fill:#1d1d1b"/><path d="M400.65,159.27a1.85,1.85,0,0,1,1.87-1.18v.54a1.8,1.8,0,0,0-1.87,2v3.12h-.56v-5.6h.56Z" style="fill:#1d1d1b"/><path d="M407.82,158.92a3,3,0,0,1,.78,2.07c0,.06,0,.21,0,.27h-5.08a2.31,2.31,0,0,0,.75,1.52,2.42,2.42,0,0,0,1.63.57,2.12,2.12,0,0,0,1.93-1l.5.29a2.76,2.76,0,0,1-2.44,1.27,3,3,0,0,1-2.14-5,2.8,2.8,0,0,1,2.09-.84A2.51,2.51,0,0,1,407.82,158.92Zm-3.58.26a2.27,2.27,0,0,0-.73,1.53H408a2.32,2.32,0,0,0-.72-1.56,2.1,2.1,0,0,0-1.47-.57A2.23,2.23,0,0,0,404.24,159.18Z" style="fill:#1d1d1b"/><path d="M411.26,160.64c1,.22,2.2.46,2.2,1.66,0,.93-.81,1.59-2,1.59a2.1,2.1,0,0,1-2.12-1.24l.48-.28a1.59,1.59,0,0,0,1.64,1c.84,0,1.45-.38,1.45-1s-.53-.87-1.2-1c-1-.23-2.2-.47-2.2-1.65a1.46,1.46,0,0,1,.53-1.13,2.09,2.09,0,0,1,1.38-.46,2,2,0,0,1,1.9,1.12l-.47.27a1.47,1.47,0,0,0-1.43-.85c-.76,0-1.35.42-1.35,1S410.59,160.47,411.26,160.64Z" style="fill:#1d1d1b"/><path d="M416.06,160.64c1,.22,2.19.46,2.19,1.66,0,.93-.8,1.59-2,1.59a2.11,2.11,0,0,1-2.13-1.24l.48-.28a1.6,1.6,0,0,0,1.65,1c.84,0,1.44-.38,1.44-1s-.52-.87-1.2-1c-1-.23-2.19-.47-2.19-1.65a1.49,1.49,0,0,1,.52-1.13,2.09,2.09,0,0,1,1.38-.46,2,2,0,0,1,1.91,1.12l-.47.27a1.49,1.49,0,0,0-1.44-.85c-.76,0-1.34.42-1.34,1S415.38,160.47,416.06,160.64Z" style="fill:#1d1d1b"/><rect x="284.38" y="119.72" width="180.53" height="63.73" style="fill:none;stroke:#1d1d1b;stroke-linecap:round;stroke-linejoin:round;stroke-width:3.2px"/></g><g id="Frontend"><path d="M99.39,240.13h-5v3.63h4.75v1.41H94.43v4.76H92.94V238.72h6.45Z" style="fill:#1d1d1b"/><path d="M102.45,243.27a2.51,2.51,0,0,1,2.49-1.49v1.46a2.47,2.47,0,0,0-1.76.54,2.29,2.29,0,0,0-.73,1.9v4.25h-1.4v-8h1.4Z" style="fill:#1d1d1b"/><path d="M109.63,250.13a4.18,4.18,0,1,1,3-1.21A4.08,4.08,0,0,1,109.63,250.13Zm2-2.17a2.85,2.85,0,0,0-2-4.88,2.74,2.74,0,0,0-2,.81,2.94,2.94,0,0,0,0,4.07,2.74,2.74,0,0,0,2,.81A2.77,2.77,0,0,0,111.65,248Z" style="fill:#1d1d1b"/><path d="M122.59,245v4.92H121.2v-4.84a1.85,1.85,0,0,0-2-2.05c-1.4,0-2.33.85-2.33,2.64v4.25H115.5v-8h1.39v1.16a2.82,2.82,0,0,1,2.6-1.36A3,3,0,0,1,122.59,245Z" style="fill:#1d1d1b"/><path d="M128.88,243.27h-2.13v4.34c0,1.23.71,1.13,2.13,1.07v1.25c-2.43.32-3.52-.34-3.52-2.32v-4.34h-1.59v-1.35h1.59V240.1l1.39-.42v2.24h2.13Z" style="fill:#1d1d1b"/><path d="M131.1,246.57a2.73,2.73,0,0,0,2.9,2.25,2.47,2.47,0,0,0,2.3-1.17l1.19.68a3.92,3.92,0,0,1-3.52,1.8,4.28,4.28,0,0,1-3.11-1.18,4.17,4.17,0,0,1-1.18-3,4.09,4.09,0,0,1,1.17-3,4,4,0,0,1,3-1.2,3.67,3.67,0,0,1,2.87,1.24,4.25,4.25,0,0,1,1.12,3,4.46,4.46,0,0,1-.05.63Zm0-1.22h5.35a2.54,2.54,0,0,0-2.58-2.32A2.66,2.66,0,0,0,131.1,245.35Z" style="fill:#1d1d1b"/><path d="M146.54,245v4.92h-1.39v-4.84a1.85,1.85,0,0,0-2-2.05c-1.4,0-2.32.85-2.32,2.64v4.25h-1.4v-8h1.4v1.16a2.8,2.8,0,0,1,2.59-1.36A3,3,0,0,1,146.54,245Z" style="fill:#1d1d1b"/><path d="M155.1,238.72h1.4v11.21h-1.4v-1.38a3.35,3.35,0,0,1-3,1.58,3.86,3.86,0,0,1-2.87-1.21,4.22,4.22,0,0,1-1.18-3,4.15,4.15,0,0,1,1.18-3,3.84,3.84,0,0,1,2.87-1.23,3.35,3.35,0,0,1,3,1.58Zm-.81,9.25a2.82,2.82,0,0,0,.81-2.05,2.77,2.77,0,0,0-.81-2,2.72,2.72,0,0,0-2-.83,2.67,2.67,0,0,0-2,.83,2.74,2.74,0,0,0-.82,2,2.79,2.79,0,0,0,.82,2.05,2.7,2.7,0,0,0,2,.82A2.75,2.75,0,0,0,154.29,248Z" style="fill:#1d1d1b"/><path d="M90.87,261.64l.51-.3a2.23,2.23,0,0,0,2.35,1.58c1.27,0,2-.64,2-1.57a1.15,1.15,0,0,0-.49-1,6.11,6.11,0,0,0-1.53-.68l-.56-.18-.5-.19a4.5,4.5,0,0,1-.48-.23,2.37,2.37,0,0,1-.69-.61,1.84,1.84,0,0,1-.26-.95,1.91,1.91,0,0,1,.67-1.52,2.49,2.49,0,0,1,1.71-.59,2.64,2.64,0,0,1,2.52,1.65l-.51.28a2,2,0,0,0-2-1.35,1.56,1.56,0,0,0-1.77,1.51,1.08,1.08,0,0,0,.44.95,6,6,0,0,0,1.47.65c.44.14.77.27,1,.37a4.55,4.55,0,0,1,.78.41,1.59,1.59,0,0,1,.81,1.47,2,2,0,0,1-.71,1.57,2.83,2.83,0,0,1-1.87.58A2.79,2.79,0,0,1,90.87,261.64Z" style="fill:#1d1d1b"/><path d="M100.35,258.32H98.68V262c0,1,.53,1,1.67.9v.51c-1.51.22-2.24-.17-2.24-1.41v-3.64H96.88v-.55h1.23v-1.4l.57-.17v1.57h1.67Z" style="fill:#1d1d1b"/><path d="M106.29,257.77h.57v5.6h-.57V262.1a2.69,2.69,0,0,1-2.41,1.39,2.93,2.93,0,0,1-2-5,2.8,2.8,0,0,1,2-.85,2.69,2.69,0,0,1,2.41,1.39ZM103.93,263a2.25,2.25,0,0,0,1.67-.69,2.41,2.41,0,0,0,0-3.38,2.26,2.26,0,0,0-1.67-.7,2.32,2.32,0,0,0-1.7.7,2.44,2.44,0,0,0,0,3.38A2.32,2.32,0,0,0,103.93,263Z" style="fill:#1d1d1b"/><path d="M111.45,258.32h-1.67V262c0,1,.53,1,1.67.9v.51c-1.51.22-2.24-.17-2.24-1.41v-3.64H108v-.55h1.23v-1.4l.57-.17v1.57h1.67Z" style="fill:#1d1d1b"/><path d="M113.52,256a.45.45,0,0,1-.89,0C112.6,255.4,113.55,255.4,113.52,256Zm-.72,7.41v-5.6h.56v5.6Z" style="fill:#1d1d1b"/><path d="M115.54,262.65a3,3,0,0,1,0-4.17,2.87,2.87,0,0,1,2.11-.84,2.62,2.62,0,0,1,2.44,1.44l-.46.27a2.12,2.12,0,0,0-2-1.17,2.31,2.31,0,0,0-1.7.7,2.27,2.27,0,0,0-.68,1.69,2.32,2.32,0,0,0,2.38,2.38,2.21,2.21,0,0,0,2-1.16l.47.28a2.77,2.77,0,0,1-2.48,1.42A2.87,2.87,0,0,1,115.54,262.65Z" style="fill:#1d1d1b"/><path d="M128.76,259.18v.54h-2v2h-.55v-2h-2v-.54h2v-2h.55v2Z" style="fill:#1d1d1b"/><path d="M138.7,263.37l-.76-2H134l-.76,2h-.63l3-7.84h.62l3,7.84Zm-4.47-2.56h3.5L136,256.25Z" style="fill:#1d1d1b"/><path d="M140,262.18l.5-.3a1.77,1.77,0,0,0,1.84,1,1.68,1.68,0,0,0,1.91-1.7v-5.69h.61v5.69a2.07,2.07,0,0,1-.72,1.68,2.73,2.73,0,0,1-1.8.59A2.39,2.39,0,0,1,140,262.18Z" style="fill:#1d1d1b"/><path d="M151.71,263.37l-.76-2H147l-.76,2h-.63l3.05-7.84h.63l3,7.84Zm-4.46-2.56h3.49L149,256.25Z" style="fill:#1d1d1b"/><path d="M158.67,263.37H158l-2.27-3.5-2.26,3.5h-.69l2.61-4-2.47-3.8h.69l2.12,3.28,2.12-3.28h.68l-2.46,3.8Z" style="fill:#1d1d1b"/><rect x="34.38" y="219.32" width="180.53" height="63.73" style="fill:none;stroke:#1d1d1b;stroke-linecap:round;stroke-linejoin:round;stroke-width:3.2px"/></g><g id="DB"><path d="M600,238.72v11.21h-1.47v-8.76l-3.67,6.1h-.19L591,241.19v8.74h-1.49V238.72h1.68l3.57,5.92,3.56-5.92Z" style="fill:#1d1d1b"/><path d="M606,250.13a4.18,4.18,0,1,1,3-1.21A4.08,4.08,0,0,1,606,250.13Zm2-2.17a2.85,2.85,0,0,0-2-4.88,2.74,2.74,0,0,0-2,.81,2.94,2.94,0,0,0,0,4.07,2.74,2.74,0,0,0,2,.81A2.77,2.77,0,0,0,608.05,248Z" style="fill:#1d1d1b"/><path d="M619,245v4.92H617.6v-4.84a1.85,1.85,0,0,0-2-2.05c-1.4,0-2.33.85-2.33,2.64v4.25H611.9v-8h1.39v1.16a2.82,2.82,0,0,1,2.6-1.36A3,3,0,0,1,619,245Z" style="fill:#1d1d1b"/><path d="M627.57,241.92h1.37v7.67a3.33,3.33,0,0,1-1.2,2.75,4.39,4.39,0,0,1-2.88,1,4,4,0,0,1-3.79-2l1.22-.68A2.62,2.62,0,0,0,624.9,252a2.37,2.37,0,0,0,2.67-2.45v-1.14a3.38,3.38,0,0,1-3,1.6,3.9,3.9,0,0,1-2.9-1.21,4.12,4.12,0,0,1-1.18-3,4.07,4.07,0,0,1,1.18-2.95,3.9,3.9,0,0,1,2.9-1.21,3.37,3.37,0,0,1,3,1.58Zm-.82,1.94a2.92,2.92,0,0,0-4.06,0,2.91,2.91,0,0,0,0,4,2.85,2.85,0,0,0,4.88-2A2.72,2.72,0,0,0,626.75,243.86Z" style="fill:#1d1d1b"/><path d="M634.81,250.13a4.17,4.17,0,1,1,3-1.21A4.11,4.11,0,0,1,634.81,250.13Zm2-2.17a2.86,2.86,0,1,0-4.83-2,2.77,2.77,0,0,0,2.81,2.85A2.74,2.74,0,0,0,636.83,248Z" style="fill:#1d1d1b"/><path d="M645.2,238.72a5,5,0,0,1,3.79,1.63,6,6,0,0,1,0,8,5,5,0,0,1-3.79,1.62h-4.37V238.72Zm0,9.8a3.6,3.6,0,0,0,2.8-1.2,4.66,4.66,0,0,0,0-6,3.6,3.6,0,0,0-2.8-1.2h-2.88v8.39Z" style="fill:#1d1d1b"/><path d="M660.4,246.76a3,3,0,0,1-.94,2.25,3.2,3.2,0,0,1-2.31.92h-4.83V238.72h4.48a3,3,0,0,1,2.22.88,2.92,2.92,0,0,1,.92,2.18,2.68,2.68,0,0,1-1.22,2.34A2.86,2.86,0,0,1,660.4,246.76Zm-6.59-6.64v3.42h3a1.66,1.66,0,0,0,1.66-1.71,1.63,1.63,0,0,0-.49-1.2,1.55,1.55,0,0,0-1.17-.51Zm3.34,8.41a1.77,1.77,0,0,0,1.78-1.82,1.75,1.75,0,0,0-.53-1.28,1.67,1.67,0,0,0-1.25-.53h-3.34v3.63Z" style="fill:#1d1d1b"/><path d="M583.24,255.53a3.44,3.44,0,0,1,2.65,1.14,3.93,3.93,0,0,1,1.05,2.78,4,4,0,0,1-1.05,2.79,3.47,3.47,0,0,1-2.65,1.13H580.3v-7.84Zm0,7.28a2.9,2.9,0,0,0,2.24-1,3.69,3.69,0,0,0,0-4.78,2.87,2.87,0,0,0-2.24-1h-2.35v6.72Z" style="fill:#1d1d1b"/><path d="M588.8,262.65a2.95,2.95,0,1,1,4.17,0,3,3,0,0,1-4.17,0Zm2.09.3a2.39,2.39,0,0,0,0-4.77,2.32,2.32,0,0,0-1.69.7,2.44,2.44,0,0,0,0,3.38A2.31,2.31,0,0,0,590.89,263Z" style="fill:#1d1d1b"/><path d="M595.63,262.65a3,3,0,0,1,0-4.17,2.87,2.87,0,0,1,2.11-.84,2.61,2.61,0,0,1,2.44,1.44l-.46.27a2.11,2.11,0,0,0-2-1.17,2.3,2.3,0,0,0-1.69.7,2.28,2.28,0,0,0-.69,1.69,2.32,2.32,0,0,0,.69,1.7,2.28,2.28,0,0,0,1.69.68,2.21,2.21,0,0,0,2-1.16l.47.28a2.75,2.75,0,0,1-2.48,1.42A2.87,2.87,0,0,1,595.63,262.65Z" style="fill:#1d1d1b"/><path d="M605.75,263.37H605l-3-2.76v2.76h-.56v-7.84H602v4.78l2.83-2.54h.78l-3,2.68Z" style="fill:#1d1d1b"/><path d="M610.82,258.52a3,3,0,0,1,.77,2.07c0,.06,0,.21,0,.27h-5.07a2.23,2.23,0,0,0,.75,1.52,2.37,2.37,0,0,0,1.62.57,2.13,2.13,0,0,0,1.94-1l.49.29a2.74,2.74,0,0,1-2.44,1.27,3,3,0,0,1-2.14-5,2.8,2.8,0,0,1,2.1-.84A2.54,2.54,0,0,1,610.82,258.52Zm-3.59.26a2.26,2.26,0,0,0-.72,1.53H611a2.27,2.27,0,0,0-.72-1.56,2.06,2.06,0,0,0-1.46-.57A2.25,2.25,0,0,0,607.23,258.78Z" style="fill:#1d1d1b"/><path d="M613.46,258.87a1.87,1.87,0,0,1,1.87-1.18v.54a1.81,1.81,0,0,0-1.87,2v3.12h-.56v-5.6h.56Z" style="fill:#1d1d1b"/><path d="M620.27,262.32a4.05,4.05,0,0,1,2.92-6.92,3.85,3.85,0,0,1,2,.52,3.54,3.54,0,0,1,1.38,1.36l-.52.31a3,3,0,0,0-1.16-1.17,3.19,3.19,0,0,0-1.68-.44,3.35,3.35,0,0,0-2.5,1,3.47,3.47,0,0,0,2.5,5.94,3.22,3.22,0,0,0,2.86-1.65l.53.3a3.83,3.83,0,0,1-3.39,1.92A3.94,3.94,0,0,1,620.27,262.32Z" style="fill:#1d1d1b"/><path d="M628.28,262.65a2.95,2.95,0,1,1,4.17,0,3,3,0,0,1-4.17,0Zm2.09.3a2.39,2.39,0,0,0,0-4.77,2.32,2.32,0,0,0-1.69.7,2.44,2.44,0,0,0,0,3.38A2.31,2.31,0,0,0,630.37,263Z" style="fill:#1d1d1b"/><path d="M639.39,259.88v3.49h-.57v-3.49a1.55,1.55,0,0,0-1.65-1.7c-1.15,0-2,.79-2,2.23v3h-.56v-5.6h.56v1.06a2.1,2.1,0,0,1,2-1.19A2.07,2.07,0,0,1,639.39,259.88Z" style="fill:#1d1d1b"/><path d="M643.84,258.32h-1.67V262c0,1,.52,1,1.67.9v.51c-1.52.22-2.24-.17-2.24-1.41v-3.64h-1.24v-.55h1.24v-1.4l.57-.17v1.57h1.67Z" style="fill:#1d1d1b"/><path d="M649.77,257.77h.57v5.6h-.57V262.1a2.68,2.68,0,0,1-2.41,1.39,2.93,2.93,0,0,1-2.05-5,2.82,2.82,0,0,1,2.05-.85,2.68,2.68,0,0,1,2.41,1.39ZM647.41,263a2.39,2.39,0,0,0,0-4.77,2.32,2.32,0,0,0-1.69.7,2.38,2.38,0,0,0,1.69,4.07Z" style="fill:#1d1d1b"/><path d="M652.8,256a.45.45,0,0,1-.9,0C651.88,255.4,652.82,255.4,652.8,256Zm-.73,7.41v-5.6h.56v5.6Z" style="fill:#1d1d1b"/><path d="M659.09,259.88v3.49h-.57v-3.49a1.55,1.55,0,0,0-1.65-1.7c-1.15,0-2,.79-2,2.23v3h-.56v-5.6h.56v1.06a2.1,2.1,0,0,1,2-1.19A2.07,2.07,0,0,1,659.09,259.88Z" style="fill:#1d1d1b"/><path d="M665.18,258.52a3,3,0,0,1,.78,2.07c0,.06,0,.21,0,.27h-5.07a2.27,2.27,0,0,0,.75,1.52,2.42,2.42,0,0,0,1.63.57,2.12,2.12,0,0,0,1.93-1l.5.29a2.76,2.76,0,0,1-2.45,1.27,2.82,2.82,0,0,1-2.94-2.92,2.9,2.9,0,0,1,.8-2.09,2.82,2.82,0,0,1,2.1-.84A2.51,2.51,0,0,1,665.18,258.52Zm-3.58.26a2.27,2.27,0,0,0-.73,1.53h4.5a2.27,2.27,0,0,0-.71-1.56,2.1,2.1,0,0,0-1.47-.57A2.21,2.21,0,0,0,661.6,258.78Z" style="fill:#1d1d1b"/><path d="M667.83,258.87a1.85,1.85,0,0,1,1.87-1.18v.54a1.8,1.8,0,0,0-1.87,2v3.12h-.56v-5.6h.56Z" style="fill:#1d1d1b"/><rect x="534.38" y="219.32" width="180.53" height="63.73" style="fill:none;stroke:#1d1d1b;stroke-linecap:round;stroke-linejoin:round;stroke-width:3.2px"/></g><line x1="134.97" y1="208.46" x2="263.03" y2="155.99" style="fill:none;stroke:#1d1d1b;stroke-miterlimit:10;stroke-width:4px"/><polygon points="138.86 213.33 127 211.72 134.32 202.26 138.86 213.33" style="fill:#1d1d1b"/><polygon points="263.68 162.19 271 152.72 259.14 151.12 263.68 162.19" style="fill:#1d1d1b"/><path d="M148.12,196a5,5,0,0,1-2-2.6,5.16,5.16,0,0,1-.45-2.34,3.58,3.58,0,0,1,.62-1.85,3.38,3.38,0,0,1,1.43-1.13,3.46,3.46,0,0,1,1.32-.3,3.25,3.25,0,0,1,1.25.24l-.36.93a2.61,2.61,0,0,0-.92-.17,2.31,2.31,0,0,0-.9.19,2,2,0,0,0-1.21,1.37,4,4,0,0,0,.39,2.57,4.6,4.6,0,0,0,1.46,2.13,1.77,1.77,0,0,0,1.76.12,2.91,2.91,0,0,0,1.22-.93l-.93-2.22-1.42.59-.49-.82,2.63-1.1,1.53,3.66a5.82,5.82,0,0,1-1,1,4.75,4.75,0,0,1-1.26.73A2.9,2.9,0,0,1,148.12,196Z" style="fill:#1d1d1b"/><path d="M153.45,186.88l1,2.45,2.81-1.18.36.87-2.81,1.18,1.08,2.57,3.43-1.44.36.87-4.52,1.9-3.2-7.63,4.45-1.86.23.92Z" style="fill:#1d1d1b"/><path d="M161.54,183.55l2.81,6.7-1.1.46-2.81-6.7-2.35,1-.38-.92,5.82-2.44.27,1Z" style="fill:#1d1d1b"/><path d="M175.65,186.86l-1,0,.63-11.71,1,0Z" style="fill:#1d1d1b"/><path d="M185.53,180.38a.65.65,0,0,0,.46.09l0,.84a1.35,1.35,0,0,1-1.47-.35,2.25,2.25,0,0,1-.53.94,2.8,2.8,0,0,1-1,.65,2.1,2.1,0,0,1-1.6.1,1.92,1.92,0,0,1-1.06-1.1,1.74,1.74,0,0,1,.13-1.7,3.87,3.87,0,0,1,1.83-1.35l.84-.35-.18-.44a1.06,1.06,0,0,0-.7-.7,1.67,1.67,0,0,0-1.1.15,5.28,5.28,0,0,0-1.42.94l-.6-.65a6.08,6.08,0,0,1,1.81-1.22,2.7,2.7,0,0,1,1.89-.2,2,2,0,0,1,1.16,1.17l1.14,2.72A1,1,0,0,0,185.53,180.38Zm-1.8.72a1.88,1.88,0,0,0,.37-.84l-.59-1.42-.78.33a2.36,2.36,0,0,0-1.16.84,1.09,1.09,0,0,0,0,1,1.12,1.12,0,0,0,.59.66,1.18,1.18,0,0,0,.91-.06A1.7,1.7,0,0,0,183.73,181.1Z" style="fill:#1d1d1b"/><path d="M191.72,175.33a4.12,4.12,0,0,1,.34,2.46,2.06,2.06,0,0,1-1.31,1.54,2.13,2.13,0,0,1-1.8,0l1.16,2.75-1,.58-3.44-8.2.92-.38.41.75a2.3,2.3,0,0,1,.47-1,2.16,2.16,0,0,1,.86-.64C189.73,172.57,190.86,173.3,191.72,175.33Zm-4-.63a2.76,2.76,0,0,0-.34.9l1.18,2.82a1.8,1.8,0,0,0,.77.28,1.44,1.44,0,0,0,.79-.11,1.27,1.27,0,0,0,.81-1,3.45,3.45,0,0,0-.35-1.81,3.81,3.81,0,0,0-1-1.54,1.1,1.1,0,0,0-1.18-.15A1.45,1.45,0,0,0,187.73,174.7Z" style="fill:#1d1d1b"/><path d="M195.36,170.38l2.11,5,1.63-.68.34.81L195,177.4l-.34-.81,1.77-.74-1.77-4.22-1.72.72-.33-.8ZM194,167.9a.78.78,0,0,1,.42.42.76.76,0,0,1,0,.59.85.85,0,0,1-.46.43.76.76,0,0,1-.61,0,.74.74,0,0,1-.41-.42.72.72,0,0,1,0-.59.75.75,0,0,1,.44-.43A.79.79,0,0,1,194,167.9Z" style="fill:#1d1d1b"/><path d="M202.22,175.71h-1l.63-11.72,1,.05Z" style="fill:#1d1d1b"/><path d="M211.71,168.9l.79.47a3.36,3.36,0,0,1-.71.91,3.55,3.55,0,0,1-1,.64,2.82,2.82,0,0,1-2.39,0,3.4,3.4,0,0,1-1.65-1.89,4,4,0,0,1-.34-1.73,2.86,2.86,0,0,1,.5-1.51,3,3,0,0,1,1.33-1,3.24,3.24,0,0,1,2.27-.13l-.21.89a2.76,2.76,0,0,0-1.68.11,1.58,1.58,0,0,0-1,1.07,2.82,2.82,0,0,0,.25,1.84A2.63,2.63,0,0,0,209,170a1.66,1.66,0,0,0,1.43,0A3,3,0,0,0,211.71,168.9Z" style="fill:#1d1d1b"/><path d="M216.68,162.23a4.4,4.4,0,0,1,1.86,4.46,2.47,2.47,0,0,1-1.54,1.63,2.53,2.53,0,0,1-2.25,0,3.68,3.68,0,0,1-1.6-2,3.77,3.77,0,0,1-.26-2.51,2.53,2.53,0,0,1,1.56-1.64A2.49,2.49,0,0,1,216.68,162.23Zm-2.74,1.83a3.36,3.36,0,0,0,.34,1.82,3.48,3.48,0,0,0,1.05,1.51,1.34,1.34,0,0,0,1.32.09,1.32,1.32,0,0,0,.85-1,3.36,3.36,0,0,0-.34-1.82,3.41,3.41,0,0,0-1-1.51,1.47,1.47,0,0,0-2.17.91Z" style="fill:#1d1d1b"/><path d="M224.56,159.89l1.82,4.33-1,.41-1.76-4.18a2.5,2.5,0,0,0-.39-.73.34.34,0,0,0-.43-.06,1.29,1.29,0,0,0-.68,1.05l1.89,4.49-.93.39-1.76-4.18a2.65,2.65,0,0,0-.39-.73.37.37,0,0,0-.43-.06,1.29,1.29,0,0,0-.68,1.06l1.89,4.49-1,.4-2.45-5.83.81-.34.35.62a2.76,2.76,0,0,1,.33-.83,1.23,1.23,0,0,1,.6-.49,1.06,1.06,0,0,1,1.35.33,2.15,2.15,0,0,1,.33-.81,1.42,1.42,0,0,1,.63-.49C223.49,158.41,224.1,158.79,224.56,159.89Z" style="fill:#1d1d1b"/><path d="M231.2,157.1l1.82,4.34-1,.4-1.76-4.18a2.65,2.65,0,0,0-.39-.73.37.37,0,0,0-.43-.06,1.31,1.31,0,0,0-.68,1.06l1.89,4.49-.93.39L228,158.62a2.55,2.55,0,0,0-.39-.72.34.34,0,0,0-.43-.06,1.27,1.27,0,0,0-.68,1l1.88,4.49-1,.41L225,158l.81-.34.35.62a2.56,2.56,0,0,1,.33-.83,1.2,1.2,0,0,1,.6-.5,1.08,1.08,0,0,1,1.35.33,2.17,2.17,0,0,1,.33-.8,1.44,1.44,0,0,1,.63-.5C230.13,155.62,230.74,156,231.2,157.1Z" style="fill:#1d1d1b"/><path d="M235.2,153.67l2.11,5,1.62-.68.34.81-4.46,1.87-.34-.81,1.78-.74-1.77-4.22-1.72.72-.34-.81Zm-1.33-2.48a.75.75,0,0,1,.41.41.74.74,0,0,1,0,.6.78.78,0,0,1-.45.42.81.81,0,0,1-.61,0,.77.77,0,0,1-.42-.43.76.76,0,0,1,0-.59.79.79,0,0,1,.44-.42A.81.81,0,0,1,233.87,151.19Z" style="fill:#1d1d1b"/><path d="M245.23,156.33a3.79,3.79,0,0,1-.82.49,2.23,2.23,0,0,1-1.7.12,1.86,1.86,0,0,1-1.08-1.1l-1.41-3.35-1.31.56-.34-.8,1.32-.55-.55-1.32,1-.57.6,1.44,2-.84.2.85-1.87.79,1.39,3.33a1.08,1.08,0,0,0,.56.62,1.31,1.31,0,0,0,.92-.11,2.49,2.49,0,0,0,1-.74l.7.55A2.64,2.64,0,0,1,245.23,156.33Z" style="fill:#1d1d1b"/><line x1="370.94" y1="5.72" x2="370.94" y2="105.11" style="fill:none;stroke:#1d1d1b;stroke-miterlimit:10;stroke-width:4px"/><polygon points="364.96 103.36 370.94 113.72 376.93 103.36 364.96 103.36" style="fill:#1d1d1b"/><path d="M393.86,52.05a3.8,3.8,0,0,1-2.34.65h-1v3h-1.19V47.46h2.19a3.87,3.87,0,0,1,2.4.64,2.25,2.25,0,0,1,.85,1.92A2.38,2.38,0,0,1,393.86,52.05Zm-.9-3.29a2.17,2.17,0,0,0-1.37-.39h-1.12v3.41h1.11a2.18,2.18,0,0,0,1.38-.4,1.65,1.65,0,0,0,.5-1.36A1.54,1.54,0,0,0,393,48.76Z" style="fill:#1d1d1b"/><path d="M401.09,54.7a2.84,2.84,0,0,1-4.58,0,5.36,5.36,0,0,1-.79-3.11,5.48,5.48,0,0,1,.79-3.13,2.83,2.83,0,0,1,4.58,0,5.47,5.47,0,0,1,.79,3.14A5.4,5.4,0,0,1,401.09,54.7Zm-.88-5.6a1.61,1.61,0,0,0-2.82,0,5.58,5.58,0,0,0-.44,2.51,5.35,5.35,0,0,0,.45,2.48,1.51,1.51,0,0,0,1.4.82,1.49,1.49,0,0,0,1.41-.82,5.52,5.52,0,0,0,.44-2.49A5.54,5.54,0,0,0,400.21,49.1Z" style="fill:#1d1d1b"/><path d="M408.54,54.69a2.49,2.49,0,0,1-1.06.87,4.2,4.2,0,0,1-1.66.31,4.76,4.76,0,0,1-1.69-.28,3.51,3.51,0,0,1-1.27-.79l.68-.77a3.2,3.2,0,0,0,2.29.88,2.15,2.15,0,0,0,1.3-.38,1.24,1.24,0,0,0,.53-1.07,1.35,1.35,0,0,0-.16-.67,1.24,1.24,0,0,0-.53-.47,4.9,4.9,0,0,0-1.07-.41,5.7,5.7,0,0,1-2-1,1.82,1.82,0,0,1-.65-1.47,1.94,1.94,0,0,1,.35-1.13,2.24,2.24,0,0,1,1-.77A3.4,3.4,0,0,1,406,47.3a4,4,0,0,1,1.49.25,3.69,3.69,0,0,1,1.2.72L408,49a2.91,2.91,0,0,0-2-.75,2,2,0,0,0-1.14.3,1,1,0,0,0-.45.85.89.89,0,0,0,.19.59,1.72,1.72,0,0,0,.61.45,8.52,8.52,0,0,0,1.22.43,4.73,4.73,0,0,1,1.8.9,2,2,0,0,1,.63,1.62A2.28,2.28,0,0,1,408.54,54.69Z" style="fill:#1d1d1b"/><path d="M413.78,48.45v7.27h-1.19V48.45H410v-1h6.32l-.12,1Z" style="fill:#1d1d1b"/><path d="M425.51,57l-.92-.41L429.7,46l.91.44Z" style="fill:#1d1d1b"/><path d="M437.12,54.82a.77.77,0,0,0,.39.26l-.27.79A1.37,1.37,0,0,1,436,55a2.13,2.13,0,0,1-.85.66,2.83,2.83,0,0,1-1.14.23,2.07,2.07,0,0,1-1.51-.54,1.87,1.87,0,0,1-.55-1.42,1.74,1.74,0,0,1,.77-1.52,3.92,3.92,0,0,1,2.21-.53h.91v-.47a1.08,1.08,0,0,0-.37-.92,1.72,1.72,0,0,0-1.08-.29,5.2,5.2,0,0,0-1.66.32l-.3-.84a6.23,6.23,0,0,1,2.13-.42,2.69,2.69,0,0,1,1.82.55,1.93,1.93,0,0,1,.62,1.53v3A1,1,0,0,0,437.12,54.82Zm-1.93,0a1.84,1.84,0,0,0,.66-.64V52.62H435a2.35,2.35,0,0,0-1.4.32,1.12,1.12,0,0,0-.44,1,1.14,1.14,0,0,0,.29.84,1.18,1.18,0,0,0,.86.29A1.73,1.73,0,0,0,435.19,54.79Z" style="fill:#1d1d1b"/><path d="M444.78,52.56a4.15,4.15,0,0,1-.63,2.4,2.07,2.07,0,0,1-1.8.91,2.15,2.15,0,0,1-1.66-.71v3l-1.15.14V49.4h1l.08.85a2.36,2.36,0,0,1,.83-.75,2.23,2.23,0,0,1,1-.26C444,49.24,444.78,50.35,444.78,52.56Zm-3.42-2.13a2.64,2.64,0,0,0-.67.7v3.06a2,2,0,0,0,.6.56,1.54,1.54,0,0,0,.77.19,1.24,1.24,0,0,0,1.12-.58,3.4,3.4,0,0,0,.38-1.8,3.74,3.74,0,0,0-.34-1.82,1.09,1.09,0,0,0-1-.58A1.4,1.4,0,0,0,441.36,50.43Z" style="fill:#1d1d1b"/><path d="M450.06,49.4v5.45h1.77v.87H447v-.87h1.92V50.28h-1.86V49.4Zm-.27-2.8a.74.74,0,0,1,.23.54.75.75,0,0,1-.23.56.79.79,0,0,1-.58.21.8.8,0,0,1-.57-.21.75.75,0,0,1-.22-.56.73.73,0,0,1,.22-.54.86.86,0,0,1,1.15,0Z" style="fill:#1d1d1b"/><path d="M454.32,57l-.92-.41L458.51,46l.91.44Z" style="fill:#1d1d1b"/><path d="M465.71,54.36l.54.74a3.33,3.33,0,0,1-1,.56,3.44,3.44,0,0,1-1.17.21,2.83,2.83,0,0,1-2.22-.89,3.45,3.45,0,0,1-.79-2.39,4,4,0,0,1,.36-1.72,2.69,2.69,0,0,1,1-1.19,3,3,0,0,1,1.62-.44,3.32,3.32,0,0,1,2.15.76l-.54.74a2.88,2.88,0,0,0-1.6-.55,1.57,1.57,0,0,0-1.31.61,2.77,2.77,0,0,0-.49,1.79,2.56,2.56,0,0,0,.49,1.74,1.63,1.63,0,0,0,1.31.57A2.9,2.9,0,0,0,465.71,54.36Z" style="fill:#1d1d1b"/><path d="M472.88,50.13a3.8,3.8,0,0,1,.71,2.43,3.71,3.71,0,0,1-.73,2.41,2.48,2.48,0,0,1-2.05.9,2.53,2.53,0,0,1-2.06-.88,4.4,4.4,0,0,1,0-4.84,2.81,2.81,0,0,1,4.12,0Zm-3.24.63a3.31,3.31,0,0,0-.39,1.81,3.4,3.4,0,0,0,.38,1.8,1.47,1.47,0,0,0,2.36,0,3.44,3.44,0,0,0,.38-1.81,3.4,3.4,0,0,0-.38-1.8,1.47,1.47,0,0,0-2.35,0Z" style="fill:#1d1d1b"/><path d="M481.05,51v4.7H480V51.19a2.54,2.54,0,0,0-.08-.82.34.34,0,0,0-.37-.23,1.31,1.31,0,0,0-1,.71v4.87h-1V51.19a2.87,2.87,0,0,0-.08-.82.36.36,0,0,0-.38-.23,1.29,1.29,0,0,0-1,.71v4.87h-1V49.4h.88l.08.71a2.53,2.53,0,0,1,.62-.64,1.26,1.26,0,0,1,.75-.23,1.07,1.07,0,0,1,1.12.83,2.28,2.28,0,0,1,.62-.62,1.39,1.39,0,0,1,.77-.21C480.63,49.24,481.05,49.84,481.05,51Z" style="fill:#1d1d1b"/><path d="M488.25,51v4.7H487.2V51.19a3,3,0,0,0-.07-.82.36.36,0,0,0-.38-.23,1.31,1.31,0,0,0-1,.71v4.87h-1V51.19a2.87,2.87,0,0,0-.08-.82.36.36,0,0,0-.38-.23,1.29,1.29,0,0,0-1,.71v4.87h-1.05V49.4h.88l.08.71a2.53,2.53,0,0,1,.62-.64,1.26,1.26,0,0,1,.75-.23,1.07,1.07,0,0,1,1.12.83,2.28,2.28,0,0,1,.62-.62,1.39,1.39,0,0,1,.77-.21C487.83,49.24,488.25,49.84,488.25,51Z" style="fill:#1d1d1b"/><path d="M493.26,49.4v5.45H495v.87h-4.84v-.87h1.92V50.28h-1.86V49.4ZM493,46.6a.73.73,0,0,1,.22.54.75.75,0,0,1-.22.56.89.89,0,0,1-1.15,0,.75.75,0,0,1-.22-.56.73.73,0,0,1,.22-.54.86.86,0,0,1,1.15,0Z" style="fill:#1d1d1b"/><path d="M501.48,55.74a3.4,3.4,0,0,1-1,.13,2.25,2.25,0,0,1-1.61-.54,1.89,1.89,0,0,1-.57-1.44V50.26h-1.43V49.4h1.43V48l1.15-.13V49.4h2.17l-.14.86h-2v3.62a1,1,0,0,0,.28.78,1.28,1.28,0,0,0,.89.26,2.54,2.54,0,0,0,1.2-.3l.43.78A3.06,3.06,0,0,1,501.48,55.74Z" style="fill:#1d1d1b"/><path d="M393.46,67.72,392.81,66h-3.32l-.65,1.71h-.74l2.69-7h.72l2.69,7Zm-3.72-2.37h2.82l-1.41-3.75Z" style="fill:#1d1d1b"/><path d="M399.2,62.73h.66v4.79a2.1,2.1,0,0,1-.74,1.7,2.67,2.67,0,0,1-1.77.62A2.4,2.4,0,0,1,395,68.62l.58-.33a1.8,1.8,0,0,0,1.79.91,1.64,1.64,0,0,0,1.85-1.68v-.78a2.24,2.24,0,0,1-2,1.1,2.49,2.49,0,0,1-1.83-.76,2.67,2.67,0,0,1,0-3.71,2.49,2.49,0,0,1,1.83-.76,2.24,2.24,0,0,1,2,1.1Zm-2,4.47a2,2,0,0,0,1.4-3.37,2,2,0,0,0-2.8,0,2,2,0,0,0,1.4,3.37Z" style="fill:#1d1d1b"/><path d="M405.56,62.73h.66v4.79a2.1,2.1,0,0,1-.74,1.7,2.67,2.67,0,0,1-1.77.62,2.4,2.4,0,0,1-2.37-1.22l.58-.33a1.8,1.8,0,0,0,1.79.91,1.64,1.64,0,0,0,1.85-1.68v-.78a2.24,2.24,0,0,1-2,1.1,2.49,2.49,0,0,1-1.83-.76,2.67,2.67,0,0,1,0-3.71,2.49,2.49,0,0,1,1.83-.76,2.24,2.24,0,0,1,2,1.1Zm-2,4.47a2,2,0,0,0,1.4-3.37,2,2,0,0,0-2.8,0,2,2,0,0,0,1.4,3.37Z" style="fill:#1d1d1b"/><path d="M408.28,63.56a1.62,1.62,0,0,1,1.58-.91v.64A1.47,1.47,0,0,0,408.28,65v2.77h-.66v-5h.66Z" style="fill:#1d1d1b"/><path d="M414.56,63.4a2.71,2.71,0,0,1,.69,1.85c0,.07,0,.18,0,.31h-4.39a1.87,1.87,0,0,0,2,1.64,1.75,1.75,0,0,0,1.61-.84l.58.34a2.52,2.52,0,0,1-2.2,1.14,2.6,2.6,0,0,1-1.92-.74,2.52,2.52,0,0,1-.74-1.87,2.56,2.56,0,0,1,.73-1.87,2.51,2.51,0,0,1,1.88-.75A2.23,2.23,0,0,1,414.56,63.4Zm-3.72,1.52h3.73a1.86,1.86,0,0,0-.61-1.23,1.79,1.79,0,0,0-1.19-.44A1.87,1.87,0,0,0,410.84,64.92Z" style="fill:#1d1d1b"/><path d="M420.6,62.73h.66v4.79a2.1,2.1,0,0,1-.74,1.7,2.67,2.67,0,0,1-1.77.62,2.4,2.4,0,0,1-2.37-1.22l.58-.33a1.8,1.8,0,0,0,1.79.91,1.64,1.64,0,0,0,1.85-1.68v-.78a2.24,2.24,0,0,1-2,1.1,2.49,2.49,0,0,1-1.83-.76,2.67,2.67,0,0,1,0-3.71,2.49,2.49,0,0,1,1.83-.76,2.24,2.24,0,0,1,2,1.1Zm-2,4.47a2,2,0,0,0,1.4-3.37,2,2,0,0,0-2.8,0,2,2,0,0,0,1.4,3.37Z" style="fill:#1d1d1b"/><path d="M427,62.73h.66v5H427v-1a2.24,2.24,0,0,1-2,1.1,2.49,2.49,0,0,1-1.83-.76,2.67,2.67,0,0,1,0-3.71,2.49,2.49,0,0,1,1.83-.76,2.24,2.24,0,0,1,2,1.1Zm-2,4.47a2,2,0,0,0,1.4-3.37,2,2,0,0,0-2.8,0A2,2,0,0,0,425,67.2Z" style="fill:#1d1d1b"/><path d="M431.67,63.37h-1.44v3c0,.85.48.78,1.44.74v.58c-1.4.21-2.1-.17-2.1-1.32v-3h-1.05v-.64h1.05v-1.2l.66-.2v1.4h1.44Z" style="fill:#1d1d1b"/><path d="M436.57,63.4a2.71,2.71,0,0,1,.69,1.85c0,.07,0,.18,0,.31h-4.39a1.87,1.87,0,0,0,2,1.64,1.75,1.75,0,0,0,1.61-.84l.58.34a2.52,2.52,0,0,1-2.2,1.14,2.6,2.6,0,0,1-1.92-.74,2.52,2.52,0,0,1-.74-1.87,2.56,2.56,0,0,1,.73-1.87,2.51,2.51,0,0,1,1.88-.75A2.23,2.23,0,0,1,436.57,63.4Zm-3.72,1.52h3.73a1.86,1.86,0,0,0-.61-1.23,1.79,1.79,0,0,0-1.19-.44A1.87,1.87,0,0,0,432.85,64.92Z" style="fill:#1d1d1b"/><path d="M442.61,60.73h.66v7h-.66v-1a2.24,2.24,0,0,1-2,1.1,2.49,2.49,0,0,1-1.83-.76,2.67,2.67,0,0,1,0-3.71,2.49,2.49,0,0,1,1.83-.76,2.24,2.24,0,0,1,2,1.1Zm-2,6.47a2,2,0,0,0,1.4-3.37,2,2,0,0,0-2.8,0,2,2,0,0,0,1.4,3.37Z" style="fill:#1d1d1b"/><path d="M453.19,62.73h.68l-1.54,5h-.72l-1.29-4-1.29,4h-.72l-1.54-5h.68l1.23,4.14L450,62.73h.66L452,66.87Z" style="fill:#1d1d1b"/><path d="M454.86,61.53a.48.48,0,1,1,.68,0A.48.48,0,0,1,454.86,61.53Zm0,6.19v-5h.66v5Z" style="fill:#1d1d1b"/><path d="M459.58,63.37h-1.44v3c0,.85.48.78,1.44.74v.58c-1.4.21-2.1-.17-2.1-1.32v-3h-1.05v-.64h1.05v-1.2l.66-.2v1.4h1.44Z" style="fill:#1d1d1b"/><path d="M465,64.66v3.06h-.66V64.66A1.26,1.26,0,0,0,463,63.25c-1,0-1.62.59-1.62,1.86v2.61h-.66v-7h.66v2.78a1.84,1.84,0,0,1,1.68-.9A1.87,1.87,0,0,1,465,64.66Z" style="fill:#1d1d1b"/><path d="M476,64.61v3.11h-.66V64.61a1.19,1.19,0,0,0-1.21-1.36c-.83,0-1.39.54-1.39,1.71v2.76H472V64.61c0-.88-.45-1.36-1.17-1.36s-1.44.55-1.44,1.71v2.76h-.66v-5h.66v.73a1.71,1.71,0,0,1,1.53-.85,1.54,1.54,0,0,1,1.52.91,1.76,1.76,0,0,1,1.62-.91A1.81,1.81,0,0,1,476,64.61Z" style="fill:#1d1d1b"/><path d="M479.57,67.84a2.58,2.58,0,0,1-1.87-.75,2.66,2.66,0,0,1,0-3.72,2.67,2.67,0,0,1,3.73,0,2.63,2.63,0,0,1,0,3.72A2.56,2.56,0,0,1,479.57,67.84Zm0-.64a2,2,0,0,0,1.4-3.37,2,2,0,0,0-2.8,0,2,2,0,0,0,1.4,3.37Z" style="fill:#1d1d1b"/><path d="M484,63.56a1.62,1.62,0,0,1,1.58-.91v.64A1.47,1.47,0,0,0,484,65v2.77h-.66v-5H484Z" style="fill:#1d1d1b"/><path d="M490.24,63.4a2.71,2.71,0,0,1,.69,1.85c0,.07,0,.18,0,.31h-4.39a1.87,1.87,0,0,0,2,1.64,1.75,1.75,0,0,0,1.61-.84l.58.34a2.52,2.52,0,0,1-2.2,1.14,2.6,2.6,0,0,1-1.92-.74,2.52,2.52,0,0,1-.74-1.87,2.56,2.56,0,0,1,.73-1.87,2.51,2.51,0,0,1,1.88-.75A2.23,2.23,0,0,1,490.24,63.4Zm-3.72,1.52h3.73a1.86,1.86,0,0,0-.61-1.23,1.79,1.79,0,0,0-1.19-.44A1.87,1.87,0,0,0,486.52,64.92Z" style="fill:#1d1d1b"/><path d="M395.9,76.61v3.11h-.66V76.61A1.2,1.2,0,0,0,394,75.25c-.83,0-1.39.54-1.39,1.71v2.76H392V76.61c0-.88-.45-1.36-1.17-1.36s-1.44.55-1.44,1.71v2.76h-.66v-5h.66v.73a1.71,1.71,0,0,1,1.53-.85,1.54,1.54,0,0,1,1.52.91,1.76,1.76,0,0,1,1.62-.91A1.82,1.82,0,0,1,395.9,76.61Z" style="fill:#1d1d1b"/><path d="M401.28,75.4a2.71,2.71,0,0,1,.69,1.85c0,.07,0,.18,0,.31h-4.39a1.87,1.87,0,0,0,2,1.64,1.75,1.75,0,0,0,1.61-.84l.58.34a2.52,2.52,0,0,1-2.2,1.14,2.6,2.6,0,0,1-1.92-.74,2.52,2.52,0,0,1-.74-1.87,2.56,2.56,0,0,1,.73-1.87,2.51,2.51,0,0,1,1.88-.75A2.23,2.23,0,0,1,401.28,75.4Zm-3.72,1.52h3.73a1.86,1.86,0,0,0-.61-1.23,1.79,1.79,0,0,0-1.19-.44A1.87,1.87,0,0,0,397.56,76.92Z" style="fill:#1d1d1b"/><path d="M405.52,75.37h-1.44v3c0,.85.48.78,1.44.74v.58c-1.4.21-2.1-.17-2.1-1.32v-3h-1.05v-.64h1.05v-1.2l.66-.2v1.4h1.44Z" style="fill:#1d1d1b"/><path d="M410.62,74.73h.66v5h-.66v-1a2.24,2.24,0,0,1-2,1.1,2.49,2.49,0,0,1-1.83-.76,2.67,2.67,0,0,1,0-3.71,2.49,2.49,0,0,1,1.83-.76,2.24,2.24,0,0,1,2,1.1Zm-2,4.47a2,2,0,0,0,1.4-3.37,2,2,0,0,0-2.8,0,2,2,0,0,0,1.4,3.37Z" style="fill:#1d1d1b"/><path d="M417,72.73h.66v7H417v-1a2.24,2.24,0,0,1-2,1.1,2.49,2.49,0,0,1-1.83-.76,2.67,2.67,0,0,1,0-3.71,2.49,2.49,0,0,1,1.83-.76,2.24,2.24,0,0,1,2,1.1Zm-2,6.47a2,2,0,0,0,1.4-3.37,2,2,0,0,0-2.8,0A2,2,0,0,0,415,79.2Z" style="fill:#1d1d1b"/><path d="M423.34,74.73H424v5h-.66v-1a2.24,2.24,0,0,1-2,1.1,2.49,2.49,0,0,1-1.83-.76,2.67,2.67,0,0,1,0-3.71,2.49,2.49,0,0,1,1.83-.76,2.24,2.24,0,0,1,2,1.1Zm-2,4.47a2,2,0,0,0,1.4-3.37,2,2,0,0,0-2.8,0,2,2,0,0,0,1.4,3.37Z" style="fill:#1d1d1b"/><path d="M428.05,75.37h-1.44v3c0,.85.48.78,1.44.74v.58c-1.4.21-2.1-.17-2.1-1.32v-3H424.9v-.64H426v-1.2l.66-.2v1.4h1.44Z" style="fill:#1d1d1b"/><path d="M433.15,74.73h.66v5h-.66v-1a2.24,2.24,0,0,1-2,1.1,2.49,2.49,0,0,1-1.83-.76,2.67,2.67,0,0,1,0-3.71,2.49,2.49,0,0,1,1.83-.76,2.24,2.24,0,0,1,2,1.1Zm-2,4.47a2,2,0,0,0,1.4-3.37,2,2,0,0,0-2.8,0,2,2,0,0,0,1.4,3.37Z" style="fill:#1d1d1b"/><path d="M438.71,80.72a9.71,9.71,0,0,1,0-9h.66a9.71,9.71,0,0,0,0,9Z" style="fill:#1d1d1b"/><path d="M443,75.37h-1.44v3c0,.85.48.78,1.44.74v.58c-1.4.21-2.1-.17-2.1-1.32v-3h-1.05v-.64h1.05v-1.2l.66-.2v1.4H443Z" style="fill:#1d1d1b"/><path d="M444.11,73.53a.48.48,0,1,1,.68,0A.48.48,0,0,1,444.11,73.53Zm0,6.19v-5h.66v5Z" style="fill:#1d1d1b"/><path d="M453.38,76.61v3.11h-.66V76.61a1.2,1.2,0,0,0-1.22-1.36c-.83,0-1.39.54-1.39,1.71v2.76h-.66V76.61c0-.88-.45-1.36-1.17-1.36s-1.44.55-1.44,1.71v2.76h-.66v-5h.66v.73a1.71,1.71,0,0,1,1.53-.85,1.54,1.54,0,0,1,1.52.91,1.76,1.76,0,0,1,1.62-.91A1.82,1.82,0,0,1,453.38,76.61Z" style="fill:#1d1d1b"/><path d="M458.76,75.4a2.71,2.71,0,0,1,.69,1.85c0,.07,0,.18,0,.31H455a1.87,1.87,0,0,0,2,1.64,1.75,1.75,0,0,0,1.61-.84l.58.34a2.52,2.52,0,0,1-2.2,1.14,2.6,2.6,0,0,1-1.92-.74,2.52,2.52,0,0,1-.74-1.87,2.56,2.56,0,0,1,.73-1.87,2.51,2.51,0,0,1,1.88-.75A2.23,2.23,0,0,1,458.76,75.4ZM455,76.92h3.73a1.86,1.86,0,0,0-.61-1.23,1.79,1.79,0,0,0-1.19-.44A1.87,1.87,0,0,0,455,76.92Z" style="fill:#1d1d1b"/><path d="M461.85,76.89c.84.21,1.89.44,1.89,1.52a1.26,1.26,0,0,1-.51,1,2,2,0,0,1-1.3.4A2,2,0,0,1,460,78.7l.56-.33a1.37,1.37,0,0,0,1.37.83c.65,0,1.15-.25,1.15-.79s-.46-.7-1-.85c-.84-.21-1.89-.44-1.89-1.52a1.28,1.28,0,0,1,.48-1,1.88,1.88,0,0,1,1.23-.41,1.84,1.84,0,0,1,1.75,1l-.55.32a1.15,1.15,0,0,0-1.2-.7c-.57,0-1.05.28-1.05.79S461.28,76.74,461.85,76.89Z" style="fill:#1d1d1b"/><path d="M467.29,75.37h-1.44v3c0,.85.48.78,1.44.74v.58c-1.4.21-2.1-.17-2.1-1.32v-3h-1.05v-.64h1.05v-1.2l.66-.2v1.4h1.44Z" style="fill:#1d1d1b"/><path d="M472.39,74.73h.66v5h-.66v-1a2.24,2.24,0,0,1-2,1.1,2.49,2.49,0,0,1-1.83-.76,2.67,2.67,0,0,1,0-3.71,2.49,2.49,0,0,1,1.83-.76,2.24,2.24,0,0,1,2,1.1Zm-2,4.47a2,2,0,0,0,1.4-3.37,2,2,0,0,0-2.8,0,2,2,0,0,0,1.4,3.37Z" style="fill:#1d1d1b"/><path d="M481.64,76.61v3.11H481V76.61a1.19,1.19,0,0,0-1.21-1.36c-.83,0-1.39.54-1.39,1.71v2.76h-.66V76.61c0-.88-.45-1.36-1.17-1.36s-1.44.55-1.44,1.71v2.76h-.66v-5h.66v.73a1.71,1.71,0,0,1,1.53-.85,1.54,1.54,0,0,1,1.52.91,1.76,1.76,0,0,1,1.62-.91A1.81,1.81,0,0,1,481.64,76.61Z" style="fill:#1d1d1b"/><path d="M487.43,75.37a2.64,2.64,0,0,1,0,3.71,2.45,2.45,0,0,1-1.82.76,2.24,2.24,0,0,1-2-1.1v3h-.66v-7h.66v1a2.24,2.24,0,0,1,2-1.1A2.45,2.45,0,0,1,487.43,75.37Zm-1.87,3.83a2,2,0,0,0,1.4-3.37,2,2,0,0,0-2.8,0,2,2,0,0,0,1.4,3.37Z" style="fill:#1d1d1b"/><path d="M495.89,75.4a2.71,2.71,0,0,1,.69,1.85c0,.07,0,.18,0,.31h-4.39a1.87,1.87,0,0,0,2,1.64,1.75,1.75,0,0,0,1.61-.84l.58.34a2.52,2.52,0,0,1-2.2,1.14,2.6,2.6,0,0,1-1.92-.74,2.52,2.52,0,0,1-.74-1.87,2.56,2.56,0,0,1,.73-1.87,2.51,2.51,0,0,1,1.88-.75A2.23,2.23,0,0,1,495.89,75.4Zm-3.72,1.52h3.73a1.86,1.86,0,0,0-.61-1.23,1.79,1.79,0,0,0-1.19-.44A1.87,1.87,0,0,0,492.17,76.92Z" style="fill:#1d1d1b"/><path d="M500.13,75.37h-1.44v3c0,.85.48.78,1.44.74v.58c-1.4.21-2.1-.17-2.1-1.32v-3h-1v-.64h1v-1.2l.66-.2v1.4h1.44Z" style="fill:#1d1d1b"/><path d="M501.38,79.09a2.62,2.62,0,0,1,1.88-4.48,2.34,2.34,0,0,1,2.19,1.31l-.54.31a1.75,1.75,0,0,0-1.65-1,1.88,1.88,0,0,0-1.4.58,2,2,0,1,0,3.09,2.4l.55.31a2.48,2.48,0,0,1-2.24,1.3A2.56,2.56,0,0,1,501.38,79.09Z" style="fill:#1d1d1b"/><path d="M506.21,79.66a.55.55,0,1,1,.78,0A.56.56,0,0,1,506.21,79.66Z" style="fill:#1d1d1b"/><path d="M508.05,80.72a9.71,9.71,0,0,0,0-9h.66a9.71,9.71,0,0,1,0,9Z" style="fill:#1d1d1b"/><line x1="479.81" y1="155.34" x2="592.69" y2="207.61" style="fill:none;stroke:#1d1d1b;stroke-miterlimit:10;stroke-width:4px"/><polygon points="478.89 161.51 472 151.72 483.92 150.65 478.89 161.51" style="fill:#1d1d1b"/><polygon points="588.58 212.3 600.5 211.22 593.61 201.44 588.58 212.3" style="fill:#1d1d1b"/><path d="M551.48,167.22l.72-.42a2.27,2.27,0,0,0,2.41,1.65c1.25,0,2-.6,2-1.51a1.12,1.12,0,0,0-.48-1,6.2,6.2,0,0,0-1.58-.7,8.81,8.81,0,0,1-1.73-.69,1.84,1.84,0,0,1-1-1.67,2.08,2.08,0,0,1,.74-1.68,2.73,2.73,0,0,1,1.84-.62,3,3,0,0,1,2.77,1.81l-.71.39a2.07,2.07,0,0,0-2.06-1.39c-1,0-1.74.54-1.74,1.45a1.08,1.08,0,0,0,.43.94,5.68,5.68,0,0,0,1.43.63l.65.23a5.48,5.48,0,0,1,.57.22,2.86,2.86,0,0,1,.57.26,2.56,2.56,0,0,1,.8.71,2.19,2.19,0,0,1,.3,1.08,2.14,2.14,0,0,1-.78,1.71,3.16,3.16,0,0,1-2,.64A3.08,3.08,0,0,1,551.48,167.22Z" style="fill:#1d1d1b"/><path d="M561.75,163.9H560v3.63c0,1,.58.95,1.73.9v.69c-1.68.26-2.52-.2-2.52-1.59V163.9H558v-.77h1.26v-1.44l.79-.24v1.68h1.73Z" style="fill:#1d1d1b"/><path d="M565.51,169.27a3.12,3.12,0,0,1-2.25-.9,3,3,0,0,1-.91-2.24,3,3,0,0,1,.91-2.23,3.06,3.06,0,0,1,2.25-.92,3.14,3.14,0,0,1,3.15,3.15,3.11,3.11,0,0,1-3.15,3.14Zm0-.77a2.32,2.32,0,0,0,1.68-.68,2.36,2.36,0,0,0,.68-1.69,2.3,2.3,0,0,0-.68-1.68,2.37,2.37,0,0,0-4.05,1.68,2.33,2.33,0,0,0,.69,1.69A2.3,2.3,0,0,0,565.51,168.5Z" style="fill:#1d1d1b"/><path d="M570.78,164.12a1.94,1.94,0,0,1,1.89-1.09v.77a1.76,1.76,0,0,0-1.89,2v3.33H570v-6h.8Z" style="fill:#1d1d1b"/><path d="M578.31,163.93a3.27,3.27,0,0,1,.83,2.22c0,.08,0,.22,0,.37h-5.26a2.24,2.24,0,0,0,2.38,2,2.12,2.12,0,0,0,1.94-1l.69.41a3,3,0,0,1-2.64,1.38,3.1,3.1,0,0,1-2.3-.89,3.3,3.3,0,0,1,0-4.5,3,3,0,0,1,2.25-.9A2.7,2.7,0,0,1,578.31,163.93Zm-4.46,1.82h4.47a2.21,2.21,0,0,0-.73-1.47,2.15,2.15,0,0,0-1.43-.53A2.24,2.24,0,0,0,573.85,165.75Z" style="fill:#1d1d1b"/><path d="M583.64,170.32H583l4.8-10.79h.6Z" style="fill:#1d1d1b"/><path d="M598,169.12l-2-3.35h-2.35v3.35h-.84v-8.39h3.36a2.51,2.51,0,0,1,2,4,2.52,2.52,0,0,1-1.29.89l2,3.46Zm-4.32-7.6V165h2.52a1.55,1.55,0,0,0,1.18-.51,1.72,1.72,0,0,0,.5-1.22,1.67,1.67,0,0,0-.5-1.22,1.55,1.55,0,0,0-1.18-.51Z" style="fill:#1d1d1b"/><path d="M604.7,163.93a3.26,3.26,0,0,1,.82,2.22c0,.08,0,.22,0,.37h-5.26a2.24,2.24,0,0,0,2.38,2,2.1,2.1,0,0,0,1.93-1l.7.41a3,3,0,0,1-2.64,1.38,3.1,3.1,0,0,1-2.3-.89,3.3,3.3,0,0,1,0-4.5,3,3,0,0,1,2.25-.9A2.7,2.7,0,0,1,604.7,163.93Zm-4.46,1.82h4.47a2.26,2.26,0,0,0-.73-1.47,2.15,2.15,0,0,0-1.43-.53A2.23,2.23,0,0,0,600.24,165.75Z" style="fill:#1d1d1b"/><path d="M609.79,163.9h-1.73v3.63c0,1,.57.95,1.73.9v.69c-1.68.26-2.52-.2-2.52-1.59V163.9H606v-.77h1.26v-1.44l.79-.24v1.68h1.73Z" style="fill:#1d1d1b"/><path d="M611.9,164.12a1.94,1.94,0,0,1,1.89-1.09v.77a1.76,1.76,0,0,0-1.89,2v3.33h-.79v-6h.79Z" style="fill:#1d1d1b"/><path d="M614.86,161.69a.58.58,0,0,1,.82-.82.58.58,0,0,1-.82.82Zm0,7.43v-6h.79v6Z" style="fill:#1d1d1b"/><path d="M622.26,163.93a3.23,3.23,0,0,1,.83,2.22c0,.08,0,.22,0,.37H617.8a2.26,2.26,0,0,0,2.39,2,2.1,2.1,0,0,0,1.93-1l.7.41a3,3,0,0,1-2.64,1.38,3.09,3.09,0,0,1-2.3-.89,3.05,3.05,0,0,1-.89-2.25,3.11,3.11,0,0,1,.87-2.25,3,3,0,0,1,2.26-.9A2.67,2.67,0,0,1,622.26,163.93Zm-4.46,1.82h4.48a2.27,2.27,0,0,0-.74-1.47,2.1,2.1,0,0,0-1.42-.53A2.25,2.25,0,0,0,617.8,165.75Z" style="fill:#1d1d1b"/><path d="M628.43,163.13h.84l-2.46,6h-1l-2.45-6h.84l2.09,5.17Z" style="fill:#1d1d1b"/><path d="M634.91,163.93a3.27,3.27,0,0,1,.83,2.22c0,.08,0,.22,0,.37h-5.27a2.25,2.25,0,0,0,2.39,2,2.11,2.11,0,0,0,1.93-1l.69.41a3,3,0,0,1-2.63,1.38,3.13,3.13,0,0,1-2.31-.89,3.33,3.33,0,0,1,0-4.5,3,3,0,0,1,2.26-.9A2.69,2.69,0,0,1,634.91,163.93Zm-4.46,1.82h4.48a2.27,2.27,0,0,0-.74-1.47,2.1,2.1,0,0,0-1.42-.53A2.25,2.25,0,0,0,630.45,165.75Z" style="fill:#1d1d1b"/><path d="M552.38,182.77a3.08,3.08,0,0,1-.9-2.24,3.09,3.09,0,0,1,3.15-3.15,2.8,2.8,0,0,1,2.63,1.57l-.65.38a2.1,2.1,0,0,0-2-1.18,2.22,2.22,0,0,0-1.67.7,2.27,2.27,0,0,0-.69,1.68,2.33,2.33,0,0,0,.69,1.69,2.28,2.28,0,0,0,1.67.68,2.25,2.25,0,0,0,2-1.17l.66.38a3,3,0,0,1-2.69,1.56A3.05,3.05,0,0,1,552.38,182.77Z" style="fill:#1d1d1b"/><path d="M561.2,183.67a3.08,3.08,0,0,1-2.24-.9,3,3,0,0,1-.92-2.24,3,3,0,0,1,.92-2.24,3.16,3.16,0,1,1,2.24,5.38Zm0-.77a2.32,2.32,0,0,0,1.68-.68,2.36,2.36,0,0,0,.68-1.69,2.3,2.3,0,0,0-.68-1.68,2.36,2.36,0,0,0-4,1.68,2.32,2.32,0,0,0,2.36,2.37Z" style="fill:#1d1d1b"/><path d="M574.31,179.78v3.74h-.79v-3.74a1.44,1.44,0,0,0-1.46-1.63c-1,0-1.67.65-1.67,2v3.32h-.79v-3.74c0-1.05-.54-1.63-1.41-1.63s-1.72.66-1.72,2v3.32h-.79v-6h.79v.87a2,2,0,0,1,1.83-1,1.85,1.85,0,0,1,1.83,1.1,2.09,2.09,0,0,1,1.94-1.1A2.18,2.18,0,0,1,574.31,179.78Z" style="fill:#1d1d1b"/><path d="M584.49,179.78v3.74h-.8v-3.74a1.43,1.43,0,0,0-1.46-1.63c-1,0-1.67.65-1.67,2v3.32h-.79v-3.74c0-1.05-.54-1.63-1.4-1.63s-1.73.66-1.73,2v3.32h-.79v-6h.79v.87a2.06,2.06,0,0,1,1.84-1,1.85,1.85,0,0,1,1.82,1.1,2.1,2.1,0,0,1,1.94-1.1A2.18,2.18,0,0,1,584.49,179.78Z" style="fill:#1d1d1b"/><path d="M586,176.09a.57.57,0,0,1,0-.82.56.56,0,0,1,.81,0,.57.57,0,0,1,0,.82A.56.56,0,0,1,586,176.09Zm0,7.43v-6h.79v6Z" style="fill:#1d1d1b"/><path d="M591.68,178.29H590v3.64c0,1,.58.95,1.73.9v.69c-1.68.26-2.52-.2-2.52-1.59v-3.64H587.9v-.76h1.26v-1.44l.79-.24v1.68h1.73Z" style="fill:#1d1d1b"/><path d="M600.92,178.33a3.25,3.25,0,0,1,.82,2.22c0,.08,0,.22,0,.37h-5.26a2.24,2.24,0,0,0,2.38,2,2.1,2.1,0,0,0,1.93-1l.7.41a3,3,0,0,1-2.64,1.38,3.09,3.09,0,0,1-2.3-.89,3.3,3.3,0,0,1,0-4.5,3,3,0,0,1,2.25-.9A2.7,2.7,0,0,1,600.92,178.33Zm-4.46,1.82h4.47a2.3,2.3,0,0,0-.73-1.47,2.15,2.15,0,0,0-1.43-.53A2.23,2.23,0,0,0,596.46,180.15Z" style="fill:#1d1d1b"/><path d="M608.16,179.84v3.68h-.79v-3.68a1.51,1.51,0,0,0-1.63-1.69c-1.15,0-1.94.71-1.94,2.23v3.14H603v-6h.79v.93a2.2,2.2,0,0,1,2-1.08A2.24,2.24,0,0,1,608.16,179.84Z" style="fill:#1d1d1b"/><path d="M612.88,178.29h-1.73v3.64c0,1,.58.95,1.73.9v.69c-1.68.26-2.52-.2-2.52-1.59v-3.64H609.1v-.76h1.26v-1.44l.79-.24v1.68h1.73Z" style="fill:#1d1d1b"/><path d="M615,178.52a2,2,0,0,1,1.9-1.09v.77a1.77,1.77,0,0,0-1.9,2v3.33h-.79v-6H615Z" style="fill:#1d1d1b"/><path d="M618,176.09a.57.57,0,0,1,0-.82.56.56,0,0,1,.81,0,.57.57,0,0,1,0,.82A.56.56,0,0,1,618,176.09Zm0,7.43v-6h.79v6Z" style="fill:#1d1d1b"/><path d="M625.36,178.33a3.25,3.25,0,0,1,.83,2.22,3.15,3.15,0,0,1,0,.37H620.9a2.25,2.25,0,0,0,2.39,2,2.11,2.11,0,0,0,1.93-1l.69.41a3,3,0,0,1-2.64,1.38,3.12,3.12,0,0,1-2.3-.89,3.3,3.3,0,0,1,0-4.5,3,3,0,0,1,2.25-.9A2.7,2.7,0,0,1,625.36,178.33Zm-4.46,1.82h4.47a2.21,2.21,0,0,0-.73-1.47,2.15,2.15,0,0,0-1.43-.53A2.24,2.24,0,0,0,620.9,180.15Z" style="fill:#1d1d1b"/><path d="M629.07,180.12c1,.25,2.27.53,2.27,1.82a1.51,1.51,0,0,1-.62,1.25,2.39,2.39,0,0,1-1.55.48,2.36,2.36,0,0,1-2.32-1.38l.67-.4a1.64,1.64,0,0,0,1.65,1c.78,0,1.37-.3,1.37-1s-.55-.84-1.23-1c-1-.25-2.27-.53-2.27-1.82a1.51,1.51,0,0,1,.58-1.22,2.41,2.41,0,0,1,3.57.73l-.66.38a1.38,1.38,0,0,0-1.44-.84c-.68,0-1.26.34-1.26.95S628.39,179.94,629.07,180.12Z" style="fill:#1d1d1b"/><path d="M193.2,295.41c2,.43,3.9.86,5.86,1.27" style="fill:none;stroke:#1d1d1b;stroke-linecap:round;stroke-linejoin:round;stroke-width:2px"/><path d="M210.75,299.1c105.81,21.1,221.61,24.31,325.58-3.21" style="fill:none;stroke:#1d1d1b;stroke-linecap:round;stroke-linejoin:round;stroke-width:2px;stroke-dasharray:11.939334869384766,11.939334869384766"/><path d="M542.1,294.32q2.89-.79,5.77-1.63" style="fill:none;stroke:#1d1d1b;stroke-linecap:round;stroke-linejoin:round;stroke-width:2px"/><polygon points="193.45 298.48 189 294.48 194.69 292.63 193.45 298.48" style="fill:#1d1d1b"/><polygon points="547.8 295.73 552 291.48 546.21 289.96 547.8 295.73" style="fill:#1d1d1b"/><polyline points="527.5 62.72 751 62.72 751 337.72 7 337.72 7 62.72 343 62.72" style="fill:none;stroke:#1d1d1b;stroke-linecap:round;stroke-linejoin:round;stroke-width:4px"/><path d="M18.83,48.92a4.43,4.43,0,0,1,3.35,1.41,5.19,5.19,0,0,1,0,7,4.39,4.39,0,0,1-3.35,1.41H15v-9.8Zm0,8.26a2.93,2.93,0,0,0,2.26-1,3.74,3.74,0,0,0,0-4.82,2.93,2.93,0,0,0-2.26-.95H16.59v6.72Z" style="fill:#1d1d1b"/><path d="M25.58,57.84a3.72,3.72,0,0,1,0-5.24,3.69,3.69,0,1,1,0,5.24Zm2.62-.4a2.11,2.11,0,0,0,1.55-.63,2.17,2.17,0,0,0,.63-1.59,2.15,2.15,0,0,0-.63-1.58,2.23,2.23,0,0,0-3.11,0A2.15,2.15,0,0,0,26,55.22a2.17,2.17,0,0,0,.63,1.59A2.12,2.12,0,0,0,28.2,57.44Z" style="fill:#1d1d1b"/><path d="M33.92,57.84a3.79,3.79,0,0,1,0-5.24,3.62,3.62,0,0,1,2.65-1.06,3.44,3.44,0,0,1,3.12,1.81l-1.3.75A1.94,1.94,0,0,0,36.56,53a2.12,2.12,0,0,0-1.56.63,2.3,2.3,0,0,0,0,3.14,2.12,2.12,0,0,0,1.56.63,2.05,2.05,0,0,0,1.86-1.08l1.3.75a3.52,3.52,0,0,1-3.15,1.82A3.59,3.59,0,0,1,33.92,57.84Z" style="fill:#1d1d1b"/><path d="M47,58.72H45.19l-2.87-3.23v3.23H40.81v-9.8h1.51v5.9L45,51.72h1.85l-3.08,3.43Z" style="fill:#1d1d1b"/><path d="M48.65,55.87a2.1,2.1,0,0,0,2.24,1.65,2.07,2.07,0,0,0,1.81-.87l1.25.73a3.46,3.46,0,0,1-3.07,1.53,3.76,3.76,0,0,1-2.76-1,3.69,3.69,0,0,1,2.65-6.33,3.27,3.27,0,0,1,2.52,1.08,3.72,3.72,0,0,1,1,2.62,4.3,4.3,0,0,1-.05.63Zm4.11-1.24a2,2,0,0,0-2-1.72,2,2,0,0,0-2.11,1.72Z" style="fill:#1d1d1b"/><path d="M57.12,52.9a2.15,2.15,0,0,1,2.16-1.31v1.64a2.19,2.19,0,0,0-1.51.42,1.75,1.75,0,0,0-.65,1.54v3.53H55.61v-7h1.51Z" style="fill:#1d1d1b"/><path d="M68.59,58.91a5,5,0,0,1-5.09-5.09,5.11,5.11,0,1,1,5.09,5.09Zm0-1.57a3.33,3.33,0,0,0,2.46-1,3.38,3.38,0,0,0,1-2.52,3.35,3.35,0,0,0-1-2.51,3.29,3.29,0,0,0-2.46-1,3.37,3.37,0,0,0-2.48,1,3.41,3.41,0,0,0-1,2.51,3.45,3.45,0,0,0,1,2.52A3.41,3.41,0,0,0,68.59,57.34Z" style="fill:#1d1d1b"/><path d="M79.79,51.72h1.65l-2.73,7H77l-2.73-7h1.65l2,5.32Z" style="fill:#1d1d1b"/><path d="M83.3,55.87a2.33,2.33,0,0,0,4,.78l1.25.73a3.46,3.46,0,0,1-3.07,1.53,3.76,3.76,0,0,1-2.76-1,3.69,3.69,0,0,1,2.65-6.33,3.27,3.27,0,0,1,2.52,1.08,3.72,3.72,0,0,1,1,2.62,4.3,4.3,0,0,1-.05.63Zm4.1-1.24a2,2,0,0,0-2-1.72,2,2,0,0,0-2.11,1.72Z" style="fill:#1d1d1b"/><path d="M91.77,52.9a2.15,2.15,0,0,1,2.16-1.31v1.64a2.19,2.19,0,0,0-1.51.42,1.75,1.75,0,0,0-.65,1.54v3.53H90.26v-7h1.51Z" style="fill:#1d1d1b"/><path d="M95.05,58.72V48.5h1.51V58.72Z" style="fill:#1d1d1b"/><path d="M103.85,51.72h1.52v7h-1.52v-1a2.83,2.83,0,0,1-2.45,1.19,3.25,3.25,0,0,1-2.46-1.07,3.87,3.87,0,0,1,0-5.24,3.28,3.28,0,0,1,2.46-1.06,2.83,2.83,0,0,1,2.45,1.18Zm-2.21,5.74a2.15,2.15,0,0,0,1.58-.63,2.2,2.2,0,0,0,.63-1.61,2.16,2.16,0,0,0-.63-1.59,2.25,2.25,0,0,0-3.16,0,2.16,2.16,0,0,0-.63,1.59,2.2,2.2,0,0,0,.63,1.61A2.15,2.15,0,0,0,101.64,57.46Z" style="fill:#1d1d1b"/><path d="M111.85,51.72h1.61L110.77,59q-1,2.71-3.42,2.58V60.11a1.74,1.74,0,0,0,1.86-1.37l.07-.14-3-6.88H108l2.09,5.09Z" style="fill:#1d1d1b"/><path d="M123.89,48.92h1.61v9.8h-1.26l-4.62-6.65v6.65H118v-9.8h1.26l4.62,6.65Z" style="fill:#1d1d1b"/><path d="M128.55,55.87a2.33,2.33,0,0,0,4,.78l1.24.73a3.45,3.45,0,0,1-3.07,1.53,3.76,3.76,0,0,1-2.75-1,3.69,3.69,0,0,1,2.64-6.33,3.24,3.24,0,0,1,2.52,1.08,3.72,3.72,0,0,1,1,2.62,4.6,4.6,0,0,1-.06.63Zm4.1-1.24a2,2,0,0,0-2-1.72,2,2,0,0,0-2.12,1.72Z" style="fill:#1d1d1b"/><path d="M139.19,53.18h-1.74v3.36c0,.9.59.88,1.74.83v1.35c-2.31.28-3.25-.35-3.25-2.18V53.18h-1.29V51.72h1.29V50.21l1.51-.45v2h1.74Z" style="fill:#1d1d1b"/><path d="M148.7,51.72h1.59l-2.19,7h-1.49L145.15,54l-1.47,4.72H142.2l-2.2-7h1.6L143,56.55l1.48-4.83h1.44l1.45,4.83Z" style="fill:#1d1d1b"/><path d="M151.82,57.84a3.72,3.72,0,0,1,0-5.24,3.7,3.7,0,0,1,6.31,2.62,3.71,3.71,0,0,1-6.31,2.62Zm2.62-.4a2.11,2.11,0,0,0,1.55-.63,2.17,2.17,0,0,0,.63-1.59,2.15,2.15,0,0,0-.63-1.58,2.23,2.23,0,0,0-3.11,0,2.15,2.15,0,0,0-.63,1.58,2.17,2.17,0,0,0,.63,1.59A2.12,2.12,0,0,0,154.44,57.44Z" style="fill:#1d1d1b"/><path d="M161,52.9a2.15,2.15,0,0,1,2.16-1.31v1.64a2.2,2.2,0,0,0-1.51.42,1.75,1.75,0,0,0-.65,1.54v3.53H159.5v-7H161Z" style="fill:#1d1d1b"/><path d="M170.48,58.72h-1.81l-2.87-3.23v3.23h-1.51v-9.8h1.51v5.9l2.72-3.1h1.85l-3.08,3.43Z" style="fill:#1d1d1b"/></g></svg>