<svg id="Ebene_1" data-name="Ebene 1" xmlns="http://www.w3.org/2000/svg" viewBox="0 0 3152 412.2"><title>occloxium-hub</title><path d="M21.24,247.77c0-82.5,52.5-135,128-135,75,0,127.5,52.5,127.5,135s-52.5,135-127.5,135C73.74,382.77,21.24,330.27,21.24,247.77Zm203.5,0c0-59-30-92-75.5-92-46,0-76,33-76,92s30,92,76,92C194.74,339.77,224.74,306.77,224.74,247.77Z"/><path d="M296.89,247.77c0-82.5,49-135,123-135,64,0,107,37.5,115,96h-51c-7-36-33.5-52.5-64-52.5-41,0-71,29-71,91.5s31,91.5,71,91.5c31,0,58.5-17,64.5-54.5h51c-8,61-54,98-115.5,98C346.89,382.77,296.89,330.27,296.89,247.77Z"/><path d="M550.94,247.77c0-82.5,49-135,123-135,64,0,107,37.5,115,96h-51c-7-36-33.5-52.5-64-52.5-41,0-71,29-71,91.5s31,91.5,71,91.5c31,0,58.5-17,64.5-54.5h51c-8,61-54,98-115.5,98C600.94,382.77,550.94,330.27,550.94,247.77Z"/><path d="M818.73,20.77h50v356h-50Z"/><path d="M900.58,247.77c0-82.5,52.5-135,128-135,75,0,127.5,52.5,127.5,135s-52.5,135-127.5,135C953.08,382.77,900.58,330.27,900.58,247.77Zm203.5,0c0-59-30-92-75.5-92-46,0-76,33-76,92s30,92,76,92C1074.08,339.77,1104.08,306.77,1104.08,247.77Z"/><path d="M1399.08,376.77h-58l-12-17-56-79c-18,25.5-38,52.5-56.5,79.5l-12,16.5h-57l97-132.5-92-125.5h58l17.5,24c15.5,21.5,31,43.5,46,65.5,15-22,31-44.5,46-65.5l17-24h57l-92,125.5Z"/><path d="M1416.62,28.77h51v53.5h-51Zm.5,90h50v258h-50Z"/><path d="M1509.12,276.27V118.77h50.5v158c0,41,25,62.5,58.5,62.5,34,0,60.5-21.5,60.5-62.5v-158h50.5v157.5c0,62.5-45.5,106.5-111,106.5C1552.12,382.77,1509.12,338.77,1509.12,276.27Z"/><path d="M2143.11,203.77v173h-50.5V210.27c0-37-17.5-53.5-49.5-53.5-30.5,0-60.5,22.5-60.5,78.5v141.5h-50V210.27c0-37-18-53.5-50-53.5-29.5,0-60.5,22.5-60.5,78.5v141.5h-50v-258h48v38.5c15.5-26.5,39.5-44.5,74.5-44.5,40.5,0,67,19.5,79.5,48.5,16.5-28.5,43-48.5,80-48.5C2112.61,112.77,2143.11,150.77,2143.11,203.77Z"/><path d="M2432.15,207.77v169h-78V223.27c0-28.5-12.5-44-41.5-44-24,0-49,15.5-49,53.5v144h-78v-356h78v132c17-23,43-40,79-40C2393.65,112.77,2432.15,143.77,2432.15,207.77Z"/><path d="M2465.45,266.27V118.77H2544v148.5c0,34,20.5,49,45,49s45-15,45-49V118.77h78.5v147.5c0,73-49.5,116.5-123.5,116.5C2514.45,382.77,2465.45,339.27,2465.45,266.27Z"/><path d="M3014.85,247.77c0,82-42.5,135-112.5,135-36.5,0-61.5-15.5-78-40.5v34.5h-76v-356h78v129.5c16.5-23.5,41-37.5,76-37.5C2972.35,112.77,3014.85,165.77,3014.85,247.77Zm-79-2c0-49-20.5-70.5-55-70.5-35,0-55.5,23.5-55.5,72.5s20.5,72.5,55.5,72.5C2915.35,320.27,2935.85,294.77,2935.85,245.77Z"/><path d="M3033.29,290.77h88v86h-88Z"/></svg>